<svg width="72" height="24" viewBox="0 0 72 24" fill="none" xmlns="http://www.w3.org/2000/svg">
<g clip-path="url(#clip0_543_38970)">
<path d="M30.9009 -0.00010311L18.8506 9.35245C18.2855 7.05014 16.9761 5.00336 15.1292 3.5354C13.2825 2.06744 11.0035 1.26196 8.65233 1.24615H0V22.7547H8.64899C11.012 22.7861 13.314 21.9982 15.1702 20.5227C17.0262 19.0472 18.324 16.9734 18.8462 14.6485L30.8986 23.9999L42.9511 14.6485V22.7547H56.5474V18.3895H47.5878V1.24615H42.6428V9.3502L31.208 18.7038L28.735 16.5201L34.2999 12.1548L40.1698 7.47857L36.7718 4.67168L25.3381 13.7099L22.8662 11.5272L34.2999 2.80005L30.8997 -0.00683594L30.9009 -0.00010311ZM4.63558 5.60357H8.34404C9.11307 5.60609 9.87245 5.77654 10.57 6.10319C11.2739 6.43534 11.9068 6.90293 12.4332 7.47969C12.9899 8.083 13.4293 8.78644 13.7286 9.55341C14.3561 11.182 14.3711 12.9858 13.7709 14.6249C13.491 15.3901 13.0762 16.098 12.5466 16.7144C12.0305 17.3186 11.3983 17.8109 10.688 18.1616C9.95508 18.5186 9.15127 18.703 8.33736 18.7005H4.63558V5.60357ZM71.9989 18.3906V22.7547H58.3993V1.24615H63.3432V18.3906H71.9956H71.9989Z" fill="#007DB8"/>
</g>
<defs>
<clipPath id="clip0_543_38970">
<rect width="72" height="24" fill="white"/>
</clipPath>
</defs>
</svg>