<svg width="504" height="320" viewBox="0 0 504 320" fill="none" xmlns="http://www.w3.org/2000/svg">
<g clip-path="url(#clip0_412_322)">
<path opacity="0.2" d="M60.3683 285.774C60.3683 285.774 13.6607 302.804 24.7654 305.846C35.864 308.888 79.6026 305.122 80.7683 308.632C81.934 312.143 61.2183 319.535 93.3422 319.925C125.466 320.314 116.183 307.142 122.57 305.937C128.957 304.732 184.104 302.785 183.157 309.405C182.21 316.025 269.274 315.069 374.99 314.68C480.706 314.291 536.563 315.136 483.899 297.827C431.236 280.517 373.156 270.88 373.156 270.88C373.156 270.88 75.3404 269.925 60.3683 285.768V285.774Z" fill="#1E1E1E"/>
<path d="M39.1608 300.723L408.091 300.723V270.101L39.1608 270.101V300.723Z" fill="#555560"/>
<path d="M467.767 27.2328C467.306 27.2328 466.85 27.2572 466.395 27.2876C466.51 26.3263 466.577 25.3467 466.577 24.355C466.577 10.8664 455.667 -0.0668945 442.207 -0.0668945C428.746 -0.0668945 417.957 10.7508 417.836 24.136C415.219 22.3533 412.056 21.3129 408.656 21.3129C400.812 21.3129 394.26 26.8495 392.67 34.2296C391.249 33.8281 389.755 33.6091 388.207 33.6091C379.173 33.6091 371.845 40.9466 371.845 50.0059C371.845 58.2317 377.892 65.04 385.773 66.2203V66.4028H467.761C478.55 66.4028 487.299 57.6355 487.299 46.8239C487.299 36.0123 478.55 27.245 467.761 27.245L467.767 27.2328Z" fill="url(#paint0_linear_412_322)"/>
<path d="M39.1667 195.296L46.4343 185.087H60.3682V282.093H39.1667V195.296Z" fill="#555560"/>
<path d="M54.4495 204.409C57.1406 201.818 57.2257 197.531 54.6397 194.834C52.0536 192.137 47.7756 192.052 45.0845 194.643C42.3935 197.235 42.3083 201.522 44.8944 204.219C47.4805 206.915 51.7585 207.001 54.4495 204.409Z" fill="#EAEAEA"/>
<path d="M43.0706 197.846L55.1467 203.857C55.8813 204.223 56.7678 203.924 57.132 203.188C57.4963 202.452 57.1988 201.564 56.4642 201.198L44.3881 195.187C43.6535 194.822 42.767 195.12 42.4028 195.856C42.0385 196.592 42.336 197.481 43.0706 197.846Z" fill="#004AB5"/>
<path d="M51.3291 228.018C54.9579 227.144 57.1929 223.488 56.321 219.851C55.4491 216.215 51.8006 213.975 48.1718 214.849C44.543 215.723 42.3081 219.379 43.18 223.015C44.0518 226.652 47.7003 228.891 51.3291 228.018Z" fill="#EAEAEA"/>
<path d="M44.9651 226.399L56.2033 218.933C56.8833 218.483 57.0716 217.558 56.6223 216.877C56.173 216.195 55.2501 216.007 54.5701 216.457L43.3319 223.922C42.6519 224.372 42.4637 225.297 42.913 225.979C43.3623 226.66 44.2851 226.849 44.9651 226.399Z" fill="#004AB5"/>
<path d="M43.0041 239.565H56.5251V237.484H43.0041V239.565Z" fill="#FFC500"/>
<path d="M43.0041 244.164H56.5251V242.083H43.0041V244.164Z" fill="#FFC500"/>
<path d="M43.0041 248.77H56.5251V246.689H43.0041V248.77Z" fill="#FFC500"/>
<path d="M383.119 33.1587H67.2408C63.1667 33.1587 59.864 36.4683 59.864 40.551V268.89C59.864 272.973 63.1667 276.283 67.2408 276.283H383.119C387.193 276.283 390.496 272.973 390.496 268.89V40.551C390.496 36.4683 387.193 33.1587 383.119 33.1587Z" fill="#1E1E1E"/>
<path d="M103.366 126.235C112.061 126.235 119.109 119.171 119.109 110.458C119.109 101.745 112.061 94.6821 103.366 94.6821C94.6713 94.6821 87.6228 101.745 87.6228 110.458C87.6228 119.171 94.6713 126.235 103.366 126.235Z" fill="#FF2B50"/>
<path d="M118.894 156.292C120.327 147.698 114.537 139.567 105.962 138.13C97.3858 136.694 89.2717 142.496 87.8381 151.09C86.4046 159.683 92.1945 167.815 100.77 169.251C109.346 170.688 117.46 164.886 118.894 156.292Z" fill="#FF2B50"/>
<path d="M103.366 212.697C112.061 212.697 119.109 205.634 119.109 196.921C119.109 188.208 112.061 181.144 103.366 181.144C94.6713 181.144 87.6228 188.208 87.6228 196.921C87.6228 205.634 94.6713 212.697 103.366 212.697Z" fill="#FF2B50"/>
<path d="M235.268 81.7436C236.575 73.1297 230.667 65.0844 222.071 63.774C213.476 62.4636 205.447 68.3842 204.139 76.9981C202.832 85.612 208.74 93.6573 217.336 94.9677C225.932 96.2781 233.96 90.3575 235.268 81.7436Z" fill="#BA3DFE"/>
<path d="M219.695 132.306C228.389 132.306 235.438 125.243 235.438 116.53C235.438 107.817 228.389 100.754 219.695 100.754C211 100.754 203.951 107.817 203.951 116.53C203.951 125.243 211 132.306 219.695 132.306Z" fill="#BA3DFE"/>
<path d="M235.262 156.068C236.57 147.454 230.661 139.409 222.066 138.098C213.47 136.788 205.441 142.708 204.134 151.322C202.826 159.936 208.734 167.981 217.33 169.292C225.926 170.602 233.954 164.682 235.262 156.068Z" fill="#BA3DFE"/>
<path d="M219.695 206.625C228.389 206.625 235.438 199.561 235.438 190.848C235.438 182.135 228.389 175.072 219.695 175.072C211 175.072 203.951 182.135 203.951 190.848C203.951 199.561 211 206.625 219.695 206.625Z" fill="#BA3DFE"/>
<path d="M235.262 230.387C236.57 221.773 230.662 213.728 222.066 212.417C213.47 211.107 205.442 217.027 204.134 225.641C202.826 234.255 208.735 242.3 217.331 243.611C225.926 244.921 233.955 239.001 235.262 230.387Z" fill="#BA3DFE"/>
<path d="M204.401 228.443C204.607 228.224 204.638 227.889 204.455 227.64L179.49 193.051L203.496 191.335L203.697 191.42C203.976 191.542 204.298 191.451 204.468 191.195H204.486H204.474C204.638 190.94 204.601 190.605 204.383 190.398L179.393 166.719L204.158 154.1C204.31 154.021 204.407 153.869 204.407 153.699C204.407 153.528 204.31 153.37 204.158 153.297L165.799 133.748L204.134 116.956C204.364 116.859 204.468 116.591 204.364 116.36C204.267 116.129 204 116.025 203.769 116.129L166.072 132.641L204.316 79.6479C204.316 79.6479 204.316 79.6297 204.328 79.6236C204.346 79.5931 204.364 79.5566 204.377 79.5201C204.383 79.5019 204.389 79.4836 204.395 79.4654C204.401 79.4228 204.401 79.3863 204.395 79.3437C204.395 79.3315 204.395 79.3194 204.395 79.3011C204.389 79.2464 204.37 79.1977 204.34 79.149C204.34 79.1429 204.328 79.1368 204.322 79.1247C204.292 79.0821 204.261 79.0517 204.225 79.0212C204.225 79.0212 204.225 79.0152 204.219 79.0152C204.207 79.0091 204.194 79.003 204.182 78.9969C204.152 78.9786 204.116 78.9604 204.079 78.9482C204.055 78.9421 204.037 78.9421 204.012 78.9361C203.982 78.9361 203.946 78.93 203.915 78.9361C203.891 78.9361 203.873 78.9421 203.848 78.9482C203.83 78.9482 203.818 78.9482 203.8 78.9543L119.364 109.892C119.146 109.795 118.891 109.832 118.703 109.996C118.46 110.209 118.417 110.568 118.605 110.835L137.488 136.997L119.14 153.072C118.927 153.06 118.721 153.163 118.593 153.352L118.502 153.309L118.575 153.376C118.417 153.638 118.472 153.966 118.697 154.167L137.512 170.649L118.739 196.659C118.739 196.659 118.733 196.671 118.727 196.677C118.715 196.695 118.709 196.714 118.697 196.732C118.684 196.75 118.678 196.775 118.672 196.793C118.672 196.811 118.666 196.829 118.66 196.854C118.66 196.878 118.654 196.902 118.66 196.921C118.66 196.927 118.66 196.939 118.66 196.945C118.66 196.957 118.66 196.969 118.666 196.975C118.666 197 118.672 197.024 118.678 197.042C118.678 197.06 118.69 197.079 118.703 197.103C118.703 197.115 118.709 197.127 118.715 197.14C118.715 197.152 118.727 197.158 118.733 197.164C118.745 197.182 118.751 197.194 118.763 197.206C118.782 197.225 118.794 197.243 118.812 197.255C118.824 197.267 118.836 197.28 118.854 197.286C118.873 197.298 118.897 197.31 118.921 197.322C118.933 197.322 118.939 197.334 118.952 197.34L203.253 228.23L203.533 228.473C203.751 228.668 204.103 228.674 204.334 228.491L204.601 228.723L204.395 228.437L204.401 228.443ZM200.224 223.91L166.09 194.012L178.027 193.161L200.224 223.916V223.91ZM151.282 181.035L164.439 174.33L177.401 192.297L165.131 193.173L151.276 181.035H151.282ZM163.382 193.294L121.313 196.306L150.086 181.643L163.382 193.294V193.294ZM150.383 126.898L163.68 133.675L150.578 139.413L143.62 132.818L150.377 126.898H150.383ZM142.964 132.197L122.242 112.557L149.515 126.454L142.964 132.191V132.197ZM151.118 126.259L201.262 82.331L164.603 133.128L151.118 126.259V126.259ZM163.407 134.789L156.218 144.755L151.3 140.094L163.407 134.789V134.789ZM149.345 139.96L143.146 142.674L138.975 136.9L142.685 133.651L149.345 139.96ZM150.055 140.636L155.477 145.777L150.426 152.774L143.68 143.428L150.055 140.636V140.636ZM165.04 173.016L150.984 153.546L156.139 146.404L177.517 166.658L165.04 173.016V173.016ZM149.661 153.838L142.782 163.372L120.469 153.601L142.515 143.946L149.661 153.845V153.838ZM150.219 154.611L162.903 172.182L143.632 163.743L150.219 154.611ZM163.492 173.807L150.559 180.396L138.951 170.223L142.879 164.778L163.492 173.807V173.807ZM178.883 192.193L166.594 175.17L201.729 190.556L178.883 192.193ZM200.928 188.841L165.999 173.545L178.215 167.321L200.928 188.841V188.841ZM202.962 153.692L178.701 166.055L156.88 145.381L164.882 134.29L202.962 153.692V153.692ZM201.833 80.6335L150.256 125.815L120.251 110.525L201.833 80.6275V80.6335ZM120.803 112.606L119.917 111.377H119.935L121.022 112.417L120.803 112.606V112.606ZM123.523 115.496L142.023 133.024L138.441 136.164L123.523 115.496ZM138.028 137.728L141.968 143.191L121.617 152.104L138.028 137.728ZM122.576 155.889L142.029 164.407L138.265 169.627L122.582 155.889H122.576ZM149.351 181.01L120.579 195.673L138.204 171.245L149.351 181.01V181.01ZM121.253 197.225L164.342 194.14L201.377 226.587L121.253 197.225V197.225Z" fill="url(#paint1_linear_412_322)"/>
<path d="M235.438 228.461C235.304 228.461 235.177 228.4 235.086 228.291C234.946 228.114 234.952 227.865 235.104 227.7L275.03 184.338L235.511 191.293C235.298 191.329 235.092 191.214 235.013 191.013C234.934 190.812 235.007 190.587 235.183 190.465L275.157 163.871L235.323 154.124C235.122 154.076 234.977 153.893 234.977 153.686C234.977 153.479 235.116 153.297 235.323 153.248L275.157 143.501L235.183 116.907C235.007 116.786 234.934 116.561 235.013 116.36C235.092 116.159 235.298 116.044 235.511 116.08L275.03 123.034L235.104 79.6723C234.952 79.508 234.946 79.2525 235.086 79.0821C235.225 78.9057 235.474 78.8631 235.669 78.9787L324.002 131.674C324.002 131.674 324.038 131.698 324.057 131.71C324.057 131.71 324.069 131.716 324.075 131.722C324.075 131.722 324.087 131.735 324.093 131.741C324.142 131.795 324.172 131.862 324.184 131.929C324.19 131.96 324.196 131.99 324.196 132.014C324.196 132.014 324.196 132.069 324.196 132.094C324.184 132.161 324.16 132.227 324.117 132.282C324.117 132.288 324.105 132.294 324.105 132.3C324.105 132.3 324.093 132.313 324.087 132.319L304.47 153.625L324.087 174.926C324.087 174.926 324.105 174.944 324.111 174.957C324.111 174.957 324.117 174.969 324.123 174.969C324.166 175.024 324.19 175.091 324.196 175.157C324.196 175.182 324.196 175.212 324.196 175.237C324.196 175.267 324.196 175.297 324.184 175.328C324.172 175.395 324.142 175.456 324.093 175.51C324.069 175.535 324.044 175.565 324.02 175.583C324.002 175.595 323.984 175.608 323.966 175.62L235.632 228.315C235.559 228.358 235.48 228.376 235.402 228.376L235.438 228.461ZM276.499 184.083L237.873 226.027L321.428 176.18L276.493 184.083H276.499ZM276.353 164.169L237.484 190.033L276.044 183.249L290.439 167.619L276.359 164.175L276.353 164.169ZM291.435 167.862L277.507 182.988L321.573 175.237L291.435 167.862V167.862ZM292.133 167.102L321.373 174.257L299.158 159.478L292.133 167.102V167.102ZM299.777 158.803L320.893 172.852L303.863 154.362L299.771 158.803H299.777ZM277.373 163.494L291.131 166.859L298.393 158.974L291.283 154.24L277.373 163.494ZM237.332 153.699L276.177 163.202L290.463 153.699L276.177 144.195L237.332 153.699V153.699ZM292.097 153.699L299.012 158.298L303.25 153.699L299.012 149.099L292.097 153.699V153.699ZM277.373 143.903L291.283 153.157L298.393 148.424L291.131 140.538L277.373 143.903ZM299.777 148.594L303.869 153.035L320.899 134.546L299.783 148.594H299.777ZM292.133 140.295L299.158 147.919L321.373 133.14L292.133 140.295V140.295ZM237.478 117.364L276.347 143.228L290.427 139.784L276.032 124.154L237.472 117.37L237.478 117.364ZM277.501 124.403L291.429 139.528L321.567 132.154L277.501 124.403V124.403ZM276.493 123.308L321.428 131.211L237.873 81.3637L276.499 123.308H276.493Z" fill="url(#paint2_linear_412_322)"/>
<path d="M95.9044 58.1348H76.4272C75.4012 58.1348 74.5754 57.3012 74.5754 56.279C74.5754 55.2567 75.4072 54.4231 76.4272 54.4231H95.9044C96.9304 54.4231 97.7562 55.2567 97.7562 56.279C97.7562 57.3012 96.9244 58.1348 95.9044 58.1348Z" fill="white"/>
<path d="M124.938 58.1348H105.46C104.434 58.1348 103.609 57.3012 103.609 56.279C103.609 55.2567 104.44 54.4231 105.46 54.4231H124.938C125.964 54.4231 126.789 55.2567 126.789 56.279C126.789 57.3012 125.958 58.1348 124.938 58.1348V58.1348Z" fill="white"/>
<path d="M87.2587 68.0397H76.4272C75.4012 68.0397 74.5754 67.2061 74.5754 66.1839C74.5754 65.1616 75.4072 64.328 76.4272 64.328H87.2587C88.2847 64.328 89.1104 65.1616 89.1104 66.1839C89.1104 67.2061 88.2787 68.0397 87.2587 68.0397Z" fill="white"/>
<path d="M131.592 68.0397H96.8147C95.7886 68.0397 94.9629 67.2061 94.9629 66.1839C94.9629 65.1616 95.7947 64.328 96.8147 64.328H131.592C132.618 64.328 133.444 65.1616 133.444 66.1839C133.444 67.2061 132.612 68.0397 131.592 68.0397Z" fill="white"/>
<path d="M105.285 78.5653H76.4272C75.4012 78.5653 74.5754 77.7317 74.5754 76.7095C74.5754 75.6872 75.4072 74.8536 76.4272 74.8536H105.285C106.311 74.8536 107.137 75.6872 107.137 76.7095C107.137 77.7317 106.305 78.5653 105.285 78.5653Z" fill="white"/>
<path d="M354.505 53.3765H349.654V78.565H354.505V53.3765Z" fill="#FFC500"/>
<path d="M364.334 64.243H359.483V78.5652H364.334V64.243Z" fill="#BA3DFE"/>
<path d="M374.158 57.8362H369.307V78.565H374.158V57.8362Z" fill="#FF2B50"/>
<path d="M408.48 125.942H322.399C317.172 125.942 312.934 130.189 312.934 135.428V175.084C312.934 180.323 317.172 184.57 322.399 184.57H408.48C413.708 184.57 417.945 180.323 417.945 175.084V135.428C417.945 130.189 413.708 125.942 408.48 125.942Z" fill="#FFC500"/>
<path d="M317.226 119.627H346.029V184.57H299.54V137.35C299.54 127.567 307.463 119.627 317.226 119.627V119.627Z" fill="#FFC500"/>
<path d="M313.887 130.877H347.255C349.927 130.877 352.094 133.049 352.094 135.726V145.442C352.094 164.705 336.485 180.347 317.262 180.347H313.887C311.215 180.347 309.048 178.175 309.048 175.498V135.732C309.048 133.055 311.215 130.883 313.887 130.883V130.877Z" fill="#EED9FF"/>
<path d="M327.244 139.145C327.244 139.145 319.904 138.184 319.54 147C319.175 155.816 319.448 159.059 317.032 163.257C314.616 167.461 313.565 169.195 314.3 172.024H345.61C345.61 172.024 345.841 169.42 343.376 165.356C340.917 161.292 340.097 155.767 340.049 149.415C340 143.07 335.58 135.391 327.244 139.139V139.145Z" fill="#1E1E1E"/>
<path d="M322.533 147.645H323.96V153.127H323.729C322.235 153.127 321.021 151.91 321.021 150.413V149.16C321.021 148.326 321.701 147.645 322.533 147.645V147.645Z" fill="#843C31"/>
<path d="M335.368 153.133H335.137V147.65H336.564C337.395 147.65 338.075 148.332 338.075 149.165V150.419C338.075 151.916 336.861 153.133 335.368 153.133V153.133Z" fill="#843C31"/>
<path d="M345.744 170.722C344.068 168.805 341.925 167.333 339.496 166.469L335.089 164.899V163.105C335.089 162.107 334.281 161.298 333.285 161.298H326.085C325.089 161.298 324.281 162.107 324.281 163.105V164.674L319.157 166.068C315.636 167.023 312.63 169.329 310.797 172.493L306.261 180.299H336.455L345.046 175.17C346.612 174.233 346.946 172.109 345.744 170.734V170.722Z" fill="url(#paint3_linear_412_322)"/>
<path d="M333.079 162.144C330.984 163.282 328.458 163.282 326.364 162.144V157.964H333.079V162.144Z" fill="#843C31"/>
<path d="M333.079 159.607C330.923 160.604 328.519 160.604 326.364 159.607V157.964H333.079V159.607Z" fill="#1E1E1E"/>
<path d="M335.635 146.227V153.492C335.635 156.856 332.909 159.588 329.551 159.588C326.194 159.588 323.468 156.856 323.468 153.492V145.57C323.468 143.288 325.313 141.439 327.59 141.439C327.59 141.439 329.175 146.404 335.635 146.233V146.227Z" fill="#843C31"/>
<path d="M327.906 155.098C327.906 155.098 329.715 156.85 331.53 155.098" stroke="black" stroke-linecap="round" stroke-linejoin="round"/>
<path d="M364.073 137.241H406.051" stroke="white" stroke-width="4" stroke-linecap="round" stroke-linejoin="round"/>
<path d="M364.073 155.646H406.051" stroke="white" stroke-width="4" stroke-linecap="round" stroke-linejoin="round"/>
<path d="M364.073 161.31H406.051" stroke="white" stroke-width="4" stroke-linecap="round" stroke-linejoin="round"/>
<path d="M364.073 166.962H387.685" stroke="white" stroke-width="4" stroke-linecap="round" stroke-linejoin="round"/>
<path d="M364.073 142.674H389.962" stroke="white" stroke-width="4" stroke-linecap="round" stroke-linejoin="round"/>
<path d="M348.227 195.752H270.276C265.048 195.752 260.81 199.999 260.81 205.238V236.364C260.81 241.603 265.048 245.85 270.276 245.85H348.227C353.454 245.85 357.692 241.603 357.692 236.364V205.238C357.692 199.999 353.454 195.752 348.227 195.752Z" fill="#BA3DFE"/>
<path d="M290.087 203.187H274.878C271.066 203.187 267.975 206.284 267.975 210.105V229.611C267.975 233.431 271.066 236.529 274.878 236.529H290.087C293.9 236.529 296.99 233.431 296.99 229.611V210.105C296.99 206.284 293.9 203.187 290.087 203.187Z" fill="#EED9FF"/>
<path d="M300.202 236.541C300.068 234.186 299.248 228.473 297.64 226.782C295.745 224.792 289.577 223.709 289.577 223.709C289.577 223.709 289.668 221.288 285.102 222.133C280.536 222.979 281.696 225.145 281.696 225.145C281.696 225.145 278.345 226.009 276.62 227.731C275.127 229.228 273.36 236.541 273.36 236.541H300.202V236.541Z" fill="#A343FF"/>
<path d="M292.218 213.238C292.218 212.581 291.866 212.015 291.344 211.699C291.423 211.498 291.465 211.279 291.465 211.054C291.465 210.069 290.664 209.265 289.68 209.265H289.668C289.559 208.383 288.812 207.696 287.901 207.696C287.488 207.696 287.106 207.842 286.802 208.079C286.505 207.507 285.91 207.118 285.218 207.118C284.647 207.118 284.143 207.385 283.815 207.799C283.53 207.598 283.178 207.483 282.801 207.483C281.939 207.483 281.223 208.091 281.053 208.906C281.04 208.906 281.028 208.906 281.016 208.906C280.033 208.906 279.231 209.71 279.231 210.695C279.231 211.085 279.359 211.444 279.571 211.742C279.207 212.07 278.982 212.539 278.982 213.068C278.982 213.774 279.389 214.382 279.984 214.674C280.67 218.063 282.2 220.917 285.199 221.123C285.764 221.16 286.316 221.105 286.845 220.965C287.094 221.093 287.367 221.166 287.664 221.166C288.636 221.166 289.419 220.393 289.443 219.426C289.461 219.408 289.474 219.396 289.492 219.377C290.457 219.353 291.234 218.562 291.234 217.595C291.234 217.436 291.21 217.284 291.174 217.144C291.671 216.828 291.999 216.274 291.999 215.636C291.999 215.234 291.866 214.863 291.641 214.565C291.999 214.236 292.224 213.768 292.224 213.251L292.218 213.238Z" fill="#6F14C6"/>
<path d="M287.798 214.912C287.798 214.912 286.996 214.638 287.263 213.275C287.263 213.275 287.087 210.239 283.615 209.959C280.142 209.673 279.984 212.04 279.783 214.918C279.583 217.795 279.085 221.3 282.546 221.671L283.098 224.859C283.098 224.859 286.128 225.303 287.822 223.253L287.075 219.134C287.075 219.134 287.871 218.197 288.071 217.175C288.271 216.153 287.798 214.912 287.798 214.912Z" fill="#CC7DFF"/>
<path d="M290.427 216.11C290.36 217.096 289.176 217.814 288.417 217.765C287.658 217.717 287.616 216.907 287.683 215.922C287.749 214.936 288.417 214.181 289.176 214.236C289.935 214.291 290.494 215.131 290.427 216.116V216.11Z" fill="#CC7DFF"/>
<path d="M281.216 218.599C281.216 218.599 282.078 219.408 283.432 218.55" stroke="black" stroke-linecap="round" stroke-linejoin="round"/>
<path d="M282.546 221.671C282.546 221.671 283.955 221.75 285.485 220.558C285.485 220.558 285.825 222.736 282.904 223.71L282.552 221.671H282.546Z" fill="#1E1E1E"/>
<path d="M307.767 205.591H346.497" stroke="white" stroke-width="4" stroke-linecap="round" stroke-linejoin="round"/>
<path d="M307.767 222.571H346.497" stroke="white" stroke-width="4" stroke-linecap="round" stroke-linejoin="round"/>
<path d="M307.767 227.798H346.497" stroke="white" stroke-width="4" stroke-linecap="round" stroke-linejoin="round"/>
<path d="M307.767 233.012H329.551" stroke="white" stroke-width="4" stroke-linecap="round" stroke-linejoin="round"/>
<path d="M307.767 210.604H331.652" stroke="white" stroke-width="4" stroke-linecap="round" stroke-linejoin="round"/>
<path d="M457.871 195.637H379.92C374.692 195.637 370.454 199.884 370.454 205.122V236.48C370.454 241.718 374.692 245.965 379.92 245.965H457.871C463.098 245.965 467.336 241.718 467.336 236.48V205.122C467.336 199.884 463.098 195.637 457.871 195.637Z" fill="#BA3DFE"/>
<path d="M399.749 202.877H384.54C380.728 202.877 377.637 205.974 377.637 209.795V229.301C377.637 233.121 380.728 236.218 384.54 236.218H399.749C403.562 236.218 406.652 233.121 406.652 229.301V209.795C406.652 205.974 403.562 202.877 399.749 202.877Z" fill="#EED9FF"/>
<path d="M392.275 216.5C392.275 216.5 387.29 215.027 388.049 211.693C388.808 208.365 392.591 207.775 395.493 210.221C398.395 212.667 400.453 211.693 401.631 214.394C402.712 216.871 401.085 219.45 401.085 219.45C401.085 219.45 403.453 221.665 406.106 224.403C408.753 227.141 408.71 232.976 405.517 233.73C402.323 234.49 388.219 233.061 388.596 227.664C388.972 222.267 392.275 216.5 392.275 216.5V216.5Z" fill="#4B208E"/>
<path d="M394.467 224.397C397.478 224.476 400.034 225.224 402.238 226.186C406.628 228.096 407.417 229.027 408.018 236.218H382.099C382.099 236.218 384.492 229.915 386.459 227.451C388.426 224.987 394.467 224.403 394.467 224.403V224.397Z" fill="#C297FF"/>
<path d="M398.656 215.922C398.14 215.922 397.697 216.347 397.52 216.95C396.749 216.755 397.053 215.429 397.053 215.429C393.878 214.437 392.712 210.963 392.712 210.963C388.225 212.277 388.929 215.922 389.391 219.834C389.858 223.746 392.275 223.308 392.275 223.308V225.65C392.275 225.869 392.408 226.064 392.609 226.149L392.694 226.186C394.06 226.733 395.602 226.624 396.877 225.893C397.059 225.79 397.162 225.589 397.144 225.382L396.755 220.862C397.278 220.101 397.812 219.225 397.812 219.225C397.909 219.298 398.024 219.347 398.176 219.347C398.856 219.347 399.882 218.471 399.882 217.564C399.882 216.658 399.336 215.928 398.656 215.928V215.922Z" fill="#9B40F2"/>
<path d="M392.275 223.302C392.275 223.302 393.696 223.265 395.068 222.115C395.068 222.115 394.509 224.58 392.275 224.835V223.302V223.302Z" fill="#1E1E1E"/>
<path d="M391.012 220.247C391.012 220.247 391.777 221.081 393.344 219.992" stroke="black" stroke-linecap="round" stroke-linejoin="round"/>
<path d="M401.364 214.742C402.863 214.742 404.078 213.524 404.078 212.022C404.078 210.52 402.863 209.302 401.364 209.302C399.865 209.302 398.65 210.52 398.65 212.022C398.65 213.524 399.865 214.742 401.364 214.742Z" fill="#4B208E"/>
<path d="M389.925 218.24C390.797 218.24 391.504 217.532 391.504 216.658C391.504 215.784 390.797 215.076 389.925 215.076C389.053 215.076 388.347 215.784 388.347 216.658C388.347 217.532 389.053 218.24 389.925 218.24Z" stroke="black" stroke-linecap="round" stroke-linejoin="round"/>
<path d="M394.212 218.24C395.084 218.24 395.79 217.532 395.79 216.658C395.79 215.784 395.084 215.076 394.212 215.076C393.34 215.076 392.633 215.784 392.633 216.658C392.633 217.532 393.34 218.24 394.212 218.24Z" stroke="black" stroke-linecap="round" stroke-linejoin="round"/>
<path d="M391.504 216.658H392.633" stroke="black" stroke-linecap="round" stroke-linejoin="round"/>
<path d="M417.635 205.013H456.359" stroke="white" stroke-width="4" stroke-linecap="round" stroke-linejoin="round"/>
<path d="M417.635 221.994H456.359" stroke="white" stroke-width="4" stroke-linecap="round" stroke-linejoin="round"/>
<path d="M417.635 227.22H456.359" stroke="white" stroke-width="4" stroke-linecap="round" stroke-linejoin="round"/>
<path d="M417.635 232.434H439.414" stroke="white" stroke-width="4" stroke-linecap="round" stroke-linejoin="round"/>
<path d="M417.635 210.026H441.514" stroke="white" stroke-width="4" stroke-linecap="round" stroke-linejoin="round"/>
<path d="M107.264 281.223C105.139 278.51 103.342 275.437 102.747 272.042C102.152 268.647 102.893 264.893 105.285 262.417C107.628 259.989 111.204 259.058 113.536 256.619C114.884 255.207 115.728 253.382 117.069 251.97C118.411 250.559 120.621 249.616 122.303 250.601C124.07 251.636 124.246 254.234 123.378 256.089C122.509 257.945 120.907 259.326 119.632 260.932C115.952 265.581 115.278 272.407 117.962 277.694L107.264 281.223V281.223Z" fill="url(#paint4_linear_412_322)"/>
<path d="M111.192 278.461C111.095 278.461 110.998 278.418 110.931 278.339C108.818 275.753 108.114 271.951 109.146 268.659C110.196 265.319 112.753 262.727 115.005 260.446C115.139 260.312 115.351 260.312 115.485 260.446C115.618 260.579 115.618 260.792 115.485 260.926C113.287 263.153 110.791 265.684 109.79 268.866C108.824 271.945 109.474 275.498 111.453 277.913C111.569 278.059 111.55 278.272 111.405 278.388C111.344 278.437 111.265 278.467 111.192 278.467V278.461Z" fill="#BCBCBC"/>
<path d="M96.1775 283.547C90.525 281.649 86.4511 275.796 86.615 269.827C86.7061 266.463 87.9811 262.977 86.779 259.837C86.1415 258.164 84.8665 256.825 83.9315 255.298C82.9965 253.771 82.4136 251.788 83.2697 250.218C84.1318 248.636 86.2325 248.058 87.975 248.502C89.7175 248.946 91.1383 250.194 92.3222 251.55C95.3883 255.061 97.3008 259.575 97.6893 264.23C97.9443 267.254 97.58 270.375 98.5393 273.253C99.5047 276.155 101.696 278.449 103.815 280.645L96.1715 283.559L96.1775 283.547Z" fill="url(#paint5_linear_412_322)"/>
<path d="M97.8958 281.564C97.8472 281.564 97.8047 281.552 97.7561 281.533C93.7186 279.708 91.1018 275.181 91.5329 270.77C91.6179 269.925 91.8001 269.091 91.9761 268.282C92.1461 267.509 92.3222 266.706 92.4072 265.915C92.5954 264.078 92.1401 262.526 91.1626 261.65C91.0229 261.528 91.0108 261.309 91.1322 261.17C91.2597 261.03 91.4722 261.017 91.6118 261.139C92.7533 262.161 93.2876 263.926 93.0811 265.976C92.9961 266.81 92.814 267.631 92.6379 268.422C92.4618 269.207 92.2858 270.022 92.2068 270.825C91.8001 274.962 94.2529 279.197 98.0293 280.907C98.1993 280.986 98.2783 281.186 98.1993 281.357C98.1447 281.485 98.0172 281.558 97.8897 281.558L97.8958 281.564Z" fill="#BCBCBC"/>
<path d="M96.293 280.493C94.0526 280.14 92.6805 277.615 92.808 275.346C92.9355 273.076 94.1558 271.026 95.358 269.097C96.5601 267.169 97.8169 265.161 98.0355 262.897C98.4605 258.499 94.8783 254.52 95.0544 250.102C95.2183 246.05 98.4666 242.838 101.782 240.514C103.129 239.565 104.568 238.67 106.183 238.336C107.798 238.001 109.632 238.317 110.767 239.516C112.577 241.42 111.939 244.548 110.798 246.914C109.65 249.281 108.072 251.666 108.339 254.282C108.575 256.6 110.221 258.486 111.314 260.543C113.08 263.859 113.433 267.905 112.261 271.482C111.508 273.782 110.184 275.839 109.134 278.017C108.084 280.195 107.294 282.628 107.738 285.007L96.2991 280.499L96.293 280.493Z" fill="url(#paint6_linear_412_322)"/>
<path d="M102.899 280.45C102.808 280.45 102.71 280.414 102.644 280.335C100.853 278.315 100.276 275.163 100.968 271.221C101.12 270.351 101.314 269.468 101.508 268.617C101.982 266.499 102.468 264.303 102.304 262.143C102.206 260.817 101.86 259.496 101.526 258.213C101.326 257.452 101.126 256.667 100.968 255.882C100.434 253.181 100.707 250.997 101.775 249.397C101.879 249.239 102.091 249.196 102.243 249.305C102.401 249.409 102.443 249.622 102.334 249.774C101.369 251.222 101.132 253.236 101.63 255.755C101.781 256.521 101.982 257.294 102.176 258.042C102.516 259.35 102.874 260.707 102.978 262.094C103.148 264.358 102.65 266.603 102.17 268.769C101.982 269.614 101.788 270.485 101.642 271.342C101.186 273.946 101.077 277.542 103.16 279.891C103.281 280.031 103.269 280.244 103.129 280.371C103.063 280.426 102.984 280.456 102.905 280.456L102.899 280.45Z" fill="#BCBCBC"/>
<path d="M118.654 276.806H86.6819L90.4037 308.851H113.445L118.654 276.806Z" fill="#EAEAEA"/>
<path d="M65.0736 118.356C64.7639 118.356 64.4543 118.368 64.1447 118.392C64.2236 117.741 64.2661 117.078 64.2661 116.403C64.2661 107.252 56.865 99.8353 47.7336 99.8353C38.6022 99.8353 31.2861 107.173 31.2011 116.25C29.4282 115.04 27.285 114.334 24.9718 114.334C19.6532 114.334 15.2089 118.088 14.1282 123.095C13.1629 122.821 12.1489 122.675 11.0986 122.675C4.9725 122.675 0 127.652 0 133.797C0 139.376 4.10429 143.994 9.44715 144.797V144.919H65.0736C72.3957 144.919 78.3275 138.975 78.3275 131.637C78.3275 124.3 72.3957 118.356 65.0736 118.356V118.356Z" fill="url(#paint7_linear_412_322)"/>
<path d="M305.107 257.13H245.328C240.101 257.13 235.863 261.376 235.863 266.615V288.348C235.863 293.586 240.101 297.833 245.328 297.833H305.107C310.335 297.833 314.573 293.586 314.573 288.348V266.615C314.573 261.376 310.335 257.13 305.107 257.13Z" fill="#FF2B50"/>
<path d="M274.01 265.118H305.472" stroke="white" stroke-width="4" stroke-linecap="round" stroke-linejoin="round"/>
<path d="M274.01 278.917H305.472" stroke="white" stroke-width="4" stroke-linecap="round" stroke-linejoin="round"/>
<path d="M274.01 283.164H305.472" stroke="white" stroke-width="4" stroke-linecap="round" stroke-linejoin="round"/>
<path d="M274.01 287.398H291.708" stroke="white" stroke-width="4" stroke-linecap="round" stroke-linejoin="round"/>
<path d="M274.01 269.195H293.414" stroke="white" stroke-width="4" stroke-linecap="round" stroke-linejoin="round"/>
<path d="M261.885 290.374H245.492C243.385 290.374 241.679 288.664 241.679 286.553V266.864C241.679 264.753 243.385 263.044 245.492 263.044H261.885C263.992 263.044 265.698 264.753 265.698 266.864V286.553C265.698 288.664 263.992 290.374 261.885 290.374Z" fill="#FFC0D1"/>
<path d="M257.404 268.677C257.404 268.677 260.416 268.58 260.246 273.447C260.082 278.315 261.703 283.48 261.703 283.48L247.028 284.04C247.028 284.04 247.823 280.627 248.121 275.893C248.418 271.16 247.957 269.103 250.367 267.248C252.778 265.392 256.445 265.69 257.404 268.671V268.677Z" fill="#9B042B"/>
<path d="M254.271 279.976C257.671 279.708 259.074 280.821 261.132 281.308C263.19 281.795 265.667 284.046 266.196 290.374H243.391C243.391 290.374 245.498 284.825 247.229 282.653C248.959 280.481 254.277 279.97 254.277 279.97L254.271 279.976Z" fill="#F96E8D"/>
<path d="M257.957 272.511C257.502 272.511 257.113 272.888 256.955 273.417C256.275 273.247 256.542 272.079 256.542 272.079C253.749 271.203 252.723 268.148 252.723 268.148C248.777 269.304 249.39 272.517 249.803 275.954C250.216 279.392 252.341 279.009 252.341 279.009V281.071C252.341 281.266 252.456 281.436 252.638 281.509L252.717 281.54C253.919 282.02 255.273 281.929 256.397 281.278C256.554 281.187 256.646 281.01 256.627 280.828L256.287 276.849C256.749 276.179 257.216 275.407 257.216 275.407C257.301 275.474 257.404 275.51 257.538 275.51C258.133 275.51 259.038 274.737 259.038 273.947C259.038 273.156 258.552 272.511 257.957 272.511Z" fill="#F9486E"/>
<path d="M252.341 279.009C252.341 279.009 253.592 278.978 254.8 277.968C254.8 277.968 254.308 280.14 252.341 280.359V279.009Z" fill="#1E1E1E"/>
<path d="M251.977 276.696C251.442 276.696 251.169 276.411 251.151 276.392C251.108 276.35 251.114 276.277 251.157 276.24C251.199 276.204 251.272 276.204 251.309 276.246C251.333 276.271 251.946 276.891 253.221 276.009C253.27 275.972 253.337 275.985 253.373 276.039C253.409 276.094 253.397 276.155 253.343 276.191C252.778 276.581 252.323 276.703 251.97 276.703L251.977 276.696Z" fill="black"/>
<path d="M482.818 257.13H423.039C417.811 257.13 413.573 261.376 413.573 266.615V288.348C413.573 293.586 417.811 297.833 423.039 297.833H482.818C488.045 297.833 492.283 293.586 492.283 288.348V266.615C492.283 261.376 488.045 257.13 482.818 257.13Z" fill="#FF2B50"/>
<path d="M451.727 265.118H483.189" stroke="white" stroke-width="4" stroke-linecap="round" stroke-linejoin="round"/>
<path d="M451.727 278.917H483.189" stroke="white" stroke-width="4" stroke-linecap="round" stroke-linejoin="round"/>
<path d="M451.727 283.164H483.189" stroke="white" stroke-width="4" stroke-linecap="round" stroke-linejoin="round"/>
<path d="M451.727 287.398H469.425" stroke="white" stroke-width="4" stroke-linecap="round" stroke-linejoin="round"/>
<path d="M451.727 269.195H471.131" stroke="white" stroke-width="4" stroke-linecap="round" stroke-linejoin="round"/>
<path d="M423.209 290.374H439.602C441.709 290.374 443.415 288.664 443.415 286.553V266.864C443.415 264.753 441.709 263.044 439.602 263.044H423.209C421.102 263.044 419.396 264.753 419.396 266.864V286.553C419.396 288.664 421.102 290.374 423.209 290.374Z" fill="#FFC0D1"/>
<path d="M431.084 282.44C428.697 282.823 427.847 283.006 428.03 284.977C428.03 284.977 421.618 286.955 421.618 290.782H444.095C444.095 290.782 443.257 287.77 441.611 286.462C439.966 285.154 434.471 284.277 434.471 284.277C434.471 284.277 434.745 281.85 431.09 282.44H431.084Z" fill="#F9486E"/>
<path d="M435.71 271.963C437.239 271.963 438.479 270.721 438.479 269.189C438.479 267.656 437.239 266.414 435.71 266.414C434.181 266.414 432.941 267.656 432.941 269.189C432.941 270.721 434.181 271.963 435.71 271.963Z" fill="#FF2B50"/>
<path d="M427.896 275.906C427.896 275.906 424.63 274.488 425.498 271.409C426.366 268.337 430.064 266.755 432.936 269.243C435.807 271.726 437.853 273.265 437.459 275.553C437.064 277.84 433.773 281.978 432.055 280.834C430.337 279.69 427.896 275.906 427.896 275.906Z" fill="#FF2B50"/>
<path d="M434.605 275.042C434.138 275.042 433.743 275.425 433.579 275.966C432.881 275.79 433.16 274.591 433.16 274.591C430.301 273.697 429.25 270.57 429.25 270.57C425.213 271.75 425.838 275.042 426.263 278.558C426.682 282.081 428.862 281.686 428.862 281.686V283.797C428.862 283.991 428.983 284.168 429.165 284.247L429.244 284.277C430.477 284.77 431.861 284.673 433.014 284.01C433.178 283.918 433.269 283.736 433.251 283.553L432.905 279.477C433.379 278.796 433.858 278.005 433.858 278.005C433.943 278.072 434.053 278.114 434.186 278.114C434.799 278.114 435.722 277.323 435.722 276.514C435.722 275.699 435.231 275.042 434.617 275.042H434.605Z" fill="#9B042B"/>
<path d="M428.855 281.692C428.855 281.692 430.136 281.661 431.375 280.621C431.375 280.621 430.871 282.842 428.855 283.073V281.692Z" fill="#1E1E1E"/>
<path d="M428.479 279.307C428.831 279.307 429.293 279.185 429.869 278.783C429.912 278.753 429.918 278.698 429.894 278.656C429.863 278.613 429.809 278.607 429.766 278.631C428.443 279.55 427.811 278.899 427.787 278.875C427.75 278.838 427.696 278.838 427.659 278.875C427.623 278.911 427.623 278.966 427.659 279.002C427.678 279.027 427.951 279.313 428.485 279.313L428.479 279.307Z" fill="black"/>
<path d="M393.963 257.032H334.184C328.956 257.032 324.719 261.279 324.719 266.517V288.439C324.719 293.677 328.956 297.924 334.184 297.924H393.963C399.191 297.924 403.429 293.677 403.429 288.439V266.517C403.429 261.279 399.191 257.032 393.963 257.032Z" fill="#FF2B50"/>
<path d="M363.048 264.65H394.51" stroke="white" stroke-width="4" stroke-linecap="round" stroke-linejoin="round"/>
<path d="M363.048 278.443H394.51" stroke="white" stroke-width="4" stroke-linecap="round" stroke-linejoin="round"/>
<path d="M363.048 282.689H394.51" stroke="white" stroke-width="4" stroke-linecap="round" stroke-linejoin="round"/>
<path d="M363.048 286.93H380.746" stroke="white" stroke-width="4" stroke-linecap="round" stroke-linejoin="round"/>
<path d="M363.048 268.72H382.452" stroke="white" stroke-width="4" stroke-linecap="round" stroke-linejoin="round"/>
<path d="M350.759 290.374H334.366C332.26 290.374 330.553 288.664 330.553 286.553V266.864C330.553 264.753 332.26 263.044 334.366 263.044H350.759C352.866 263.044 354.572 264.753 354.572 266.864V286.553C354.572 288.664 352.866 290.374 350.759 290.374Z" fill="#FFC0D1"/>
<path d="M340.091 281.892C340.091 281.892 338.719 282.245 338.616 284.089C338.616 284.089 331.998 284.777 330.529 286.097V290.953H354.608V286.785C353.266 284.825 347.705 283.992 347.705 283.992C347.553 282.136 346.23 281.892 346.23 281.892" fill="#9B042B"/>
<path d="M340.091 279.033V282.945C340.091 283.742 340.407 284.503 340.972 285.069L341.117 285.215C342.32 286.42 344.281 286.383 345.434 285.13C345.944 284.576 346.23 283.846 346.23 283.091V279.087" fill="#F96E8D"/>
<path d="M340.091 275.82V279.733C340.091 280.53 340.407 281.291 340.972 281.856L341.117 282.002C342.32 283.207 344.281 283.171 345.434 281.917C345.944 281.364 346.23 280.633 346.23 279.879V275.875" fill="#1E1E1E"/>
<path d="M338.749 274.154C338.749 274.154 337.924 272.335 338.561 270.473C338.561 270.473 336.594 268.045 338.227 266.73C339.86 265.416 342.435 268.452 344.372 268.3C346.308 268.142 347.486 268.075 348.312 269.633C349.223 271.355 348.294 273.923 347.152 274.16H338.749V274.154Z" fill="#9B042B"/>
<path d="M338.891 277.095C339.555 276.942 339.911 276.027 339.687 275.051C339.463 274.075 338.743 273.408 338.08 273.561C337.416 273.714 337.06 274.629 337.284 275.605C337.509 276.581 338.228 277.248 338.891 277.095Z" fill="#F96E8D"/>
<path d="M346.794 275.327C346.673 276.313 347.14 277.116 347.832 277.116C348.524 277.116 349.18 276.313 349.296 275.327C349.417 274.342 348.949 273.539 348.257 273.539C347.565 273.539 346.909 274.342 346.794 275.327Z" fill="#F96E8D"/>
<path d="M347.225 272.456V277.147C347.225 279.399 345.404 281.224 343.157 281.224C340.911 281.224 339.09 279.399 339.09 277.147V270.917C339.09 270.917 341.555 272.249 343.929 271.647C346.302 271.044 347.219 271.202 347.219 271.202V272.45L347.225 272.456Z" fill="#F96E8D"/>
<path d="M345.033 278.248C345.033 278.248 344.985 278.217 344.954 278.224C344.924 278.224 344.9 278.242 344.881 278.26C343.849 279.447 342.659 278.96 342.611 278.935C342.556 278.911 342.489 278.935 342.465 278.996C342.441 279.051 342.465 279.118 342.526 279.142C342.556 279.155 342.847 279.264 343.26 279.264C343.734 279.264 344.426 279.118 345.045 278.406C345.088 278.357 345.082 278.291 345.033 278.254V278.248Z" fill="black"/>
</g>
<defs>
<linearGradient id="paint0_linear_412_322" x1="429.578" y1="-0.0729787" x2="429.578" y2="76.4356" gradientUnits="userSpaceOnUse">
<stop stop-color="#E0BCF7"/>
<stop offset="0.13" stop-color="#E0BDF7" stop-opacity="0.98"/>
<stop offset="0.27" stop-color="#E2C2F7" stop-opacity="0.93"/>
<stop offset="0.42" stop-color="#E6C9F8" stop-opacity="0.84"/>
<stop offset="0.58" stop-color="#EBD4F9" stop-opacity="0.71"/>
<stop offset="0.73" stop-color="#F1E1FB" stop-opacity="0.55"/>
<stop offset="0.89" stop-color="#F9F2FD" stop-opacity="0.35"/>
<stop offset="1" stop-color="white" stop-opacity="0.2"/>
</linearGradient>
<linearGradient id="paint1_linear_412_322" x1="118.49" y1="153.826" x2="204.607" y2="153.826" gradientUnits="userSpaceOnUse">
<stop stop-color="#FF1D4B"/>
<stop offset="0.2" stop-color="#F52164"/>
<stop offset="0.5" stop-color="#DB2DA4"/>
<stop offset="1" stop-color="#B83DFD"/>
</linearGradient>
<linearGradient id="paint2_linear_412_322" x1="324.233" y1="153.686" x2="234.989" y2="153.686" gradientUnits="userSpaceOnUse">
<stop stop-color="#FFC500"/>
<stop offset="0.5" stop-color="#DB2DA4"/>
<stop offset="1" stop-color="#B83DFD"/>
</linearGradient>
<linearGradient id="paint3_linear_412_322" x1="326.364" y1="154.587" x2="326.364" y2="181.096" gradientUnits="userSpaceOnUse">
<stop stop-color="#FF1D4B"/>
<stop offset="0.2" stop-color="#F52164"/>
<stop offset="0.5" stop-color="#DB2DA4"/>
<stop offset="1" stop-color="#B83DFD"/>
</linearGradient>
<linearGradient id="paint4_linear_412_322" x1="102.547" y1="265.708" x2="123.882" y2="265.708" gradientUnits="userSpaceOnUse">
<stop stop-color="#CDCDCD"/>
<stop offset="1" stop-color="#3175BF"/>
</linearGradient>
<linearGradient id="paint5_linear_412_322" x1="82.8568" y1="265.952" x2="103.828" y2="265.952" gradientUnits="userSpaceOnUse">
<stop stop-color="#CDCDCD"/>
<stop offset="1" stop-color="#3175BF"/>
</linearGradient>
<linearGradient id="paint6_linear_412_322" x1="92.7958" y1="261.602" x2="112.935" y2="261.602" gradientUnits="userSpaceOnUse">
<stop stop-color="#CDCDCD"/>
<stop offset="1" stop-color="#3175BF"/>
</linearGradient>
<linearGradient id="paint7_linear_412_322" x1="39.1668" y1="99.8353" x2="39.1668" y2="151.733" gradientUnits="userSpaceOnUse">
<stop stop-color="#E0BCF7"/>
<stop offset="0.13" stop-color="#E0BDF7" stop-opacity="0.98"/>
<stop offset="0.27" stop-color="#E2C2F7" stop-opacity="0.93"/>
<stop offset="0.42" stop-color="#E6C9F8" stop-opacity="0.84"/>
<stop offset="0.58" stop-color="#EBD4F9" stop-opacity="0.71"/>
<stop offset="0.73" stop-color="#F1E1FB" stop-opacity="0.55"/>
<stop offset="0.89" stop-color="#F9F2FD" stop-opacity="0.35"/>
<stop offset="1" stop-color="white" stop-opacity="0.2"/>
</linearGradient>
<clipPath id="clip0_412_322">
<rect width="504" height="320" fill="white"/>
</clipPath>
</defs>
</svg>
