<svg width="420" height="360" viewBox="0 0 420 360" fill="none" xmlns="http://www.w3.org/2000/svg">
<g clip-path="url(#clip0_411_167)">
<path d="M210 360C309.411 360 390 279.411 390 180C390 80.5887 309.411 0 210 0C110.589 0 30 80.5887 30 180C30 279.411 110.589 360 210 360Z" fill="url(#paint0_linear_411_167)"/>
<path d="M48.7966 70.8489L60.0094 63.7938C83.2337 49.183 108.641 38.5947 135.128 32.4905L141.407 31.0446V89.2123L134.346 90.9789C108.371 97.4826 83.5206 108.313 60.8476 123.008L48.7966 130.817V70.8489V70.8489Z" fill="#BA3DFE"/>
<path d="M57.9783 76.6887V115.492" stroke="#FFC500" stroke-width="3" stroke-linecap="round" stroke-linejoin="round"/>
<path d="M62.3779 104.971L71.1264 91.249L77.3432 95.1141L87.7796 76.3737L96.4212 85.0997L106.852 71.1021L110.649 75.0629L125.294 51.8329" stroke="#FFC500" stroke-width="3" stroke-linecap="round" stroke-linejoin="round"/>
<path d="M73.0339 92.5706C74.0895 91.3228 74.2221 89.6996 73.3302 88.945C72.4382 88.1905 70.8594 88.5903 69.8039 89.8381C68.7483 91.0859 68.6156 92.7091 69.5076 93.4637C70.3995 94.2182 71.9783 93.8184 73.0339 92.5706Z" fill="white"/>
<path d="M89.3628 77.8168C90.4184 76.569 90.551 74.9458 89.6591 74.1913C88.7671 73.4367 87.1884 73.8365 86.1328 75.0843C85.0772 76.3321 84.9446 77.9553 85.8365 78.7099C86.7285 79.4644 88.3072 79.0646 89.3628 77.8168Z" fill="white"/>
<path d="M108.39 72.6016C109.445 71.3538 109.578 69.7306 108.686 68.9761C107.794 68.2215 106.215 68.6213 105.16 69.8691C104.104 71.1169 103.971 72.7401 104.863 73.4947C105.755 74.2492 107.334 73.8494 108.39 72.6016Z" fill="white"/>
<path d="M126.911 52.9115C127.967 51.6638 128.099 50.0405 127.207 49.286C126.315 48.5314 124.737 48.9313 123.681 50.179C122.625 51.4268 122.493 53.05 123.385 53.8046C124.277 54.5592 125.855 54.1593 126.911 52.9115Z" fill="white"/>
<path d="M57.9783 115.492C57.9783 115.492 78.1421 102.383 92.3817 96.318C104.191 91.2883 112.472 87.8677 120.686 85.4485" stroke="#FFC500" stroke-width="3" stroke-linecap="round" stroke-linejoin="round"/>
<path d="M103.78 84.1601L125.514 73.9376C151.86 61.5434 180.379 54.4208 209.454 52.9692L224.763 52.2041V219.478L209.15 220.434C180.266 222.207 152.007 229.571 125.93 242.117L103.78 252.779V84.1601V84.1601Z" fill="#FFC500" stroke="black" stroke-width="1.5" stroke-linecap="round" stroke-linejoin="round"/>
<path d="M126.014 160.748L128.124 164.607L134.341 155.752" fill="#FFC500"/>
<path d="M126.014 160.748L128.124 164.607L134.341 155.752" stroke="white" stroke-width="6" stroke-linecap="round" stroke-linejoin="round"/>
<path d="M126.014 185.142L128.124 189.002L134.341 180.152" stroke="white" stroke-width="6" stroke-linecap="round" stroke-linejoin="round"/>
<path d="M126.014 211.793L128.124 215.652L134.341 206.797" stroke="white" stroke-width="6" stroke-linecap="round" stroke-linejoin="round"/>
<path d="M142.679 156.776C142.679 156.776 165.082 145.422 204.627 140.837" stroke="white" stroke-width="6" stroke-linecap="round" stroke-linejoin="round"/>
<path d="M142.679 180.022C142.679 180.022 165.082 168.669 204.627 164.084" stroke="white" stroke-width="6" stroke-linecap="round" stroke-linejoin="round"/>
<path d="M142.712 162.683C142.712 162.683 160.103 153.873 191.282 148.64" stroke="white" stroke-width="6" stroke-linecap="round" stroke-linejoin="round"/>
<path d="M142.679 185.806C142.679 185.806 154.893 179.617 177.2 174.531" stroke="white" stroke-width="6" stroke-linecap="round" stroke-linejoin="round"/>
<path d="M142.679 211.225C142.679 211.225 151.433 206.791 167.647 202.347" stroke="white" stroke-width="6" stroke-linecap="round" stroke-linejoin="round"/>
<path d="M142.679 204.901C142.679 204.901 165.082 193.548 204.627 188.962" stroke="white" stroke-width="6" stroke-linecap="round" stroke-linejoin="round"/>
<path d="M375.468 224.12L371.4 221.683C353.605 211.039 333.931 203.911 313.446 200.687V149.541C333.931 152.764 353.605 159.892 371.4 170.537L375.468 172.973V224.12Z" fill="#FF8C19"/>
<path d="M225.972 296.988L227.711 301.466C227.711 301.466 228.662 305.101 232.189 306.997C232.189 306.997 233.506 303.098 237.511 302.254C237.511 302.254 235.93 298.305 235.193 293.506L225.972 296.983V296.988Z" fill="#D37540"/>
<path d="M217.736 180C217.736 180 214.366 177.603 211.553 176.27C208.74 174.937 210.428 171.741 205.949 170.74C205.949 170.74 205.105 169.423 204.447 166.447C203.789 163.471 203.367 163.099 202.551 162.97C201.735 162.841 200.813 164.129 201.55 168.056C202.287 171.983 203.209 173.249 203.209 173.249C203.209 173.249 199.547 172.827 198.467 173.513C197.386 174.2 198.467 176.202 198.467 176.202C198.467 176.202 196.042 177.547 197.336 179.415C197.336 179.415 195.71 180.703 196.959 182.312C198.208 183.921 200.841 185.525 201.657 184.816C202.472 184.107 201.313 182.34 201.313 182.34C201.313 182.34 204.475 186.504 209.111 186.74C213.747 186.976 215.17 186.74 215.17 186.74L217.736 180.011V180Z" fill="#D37540"/>
<path d="M267.864 215.787L228.971 212.721C222.04 212.175 216.779 218.837 218.912 225.453L222.968 238.027L214.732 241.161C208.999 243.344 206.051 249.707 208.093 255.49L221.68 293.956C222.349 295.852 223.891 297.343 225.837 297.843C227.311 298.22 229.264 298.361 231.705 297.776C232.949 297.483 233.944 297.033 234.738 296.51C237.213 294.873 238.293 291.784 237.523 288.92C237.061 287.199 235.908 285.134 234.231 279.649C230.861 268.582 227.064 256.672 227.064 256.672L230.856 255.721C230.856 255.721 232.859 260.886 234.968 263.097C237.078 265.308 240.448 264.571 240.448 264.571C240.448 264.571 241.078 258.039 248.668 260.565C248.668 260.565 251.408 258.247 247.824 251.186L271.009 243.918C271.009 243.918 292.405 246.866 297.463 226.004L267.847 215.782L267.864 215.787Z" fill="#1E1E1E"/>
<path d="M348.575 323.386C354.117 319.864 357.476 315.222 356.081 313.022L333.869 278.085L313.818 290.845L336.024 325.782C337.396 327.988 343.028 326.913 348.57 323.391L348.575 323.386Z" fill="url(#paint1_linear_411_167)"/>
<path d="M326.372 288.483C331.916 284.959 335.275 280.317 333.875 278.114C332.475 275.912 326.846 276.982 321.302 280.506C315.759 284.029 312.4 288.671 313.8 290.874C315.2 293.077 320.829 292.006 326.372 288.483Z" fill="url(#paint2_linear_411_167)"/>
<path d="M35.8792 266.945C35.8792 266.945 44.639 277.567 57.6577 268.813C70.6764 260.059 64.1501 247.946 64.1501 247.946L35.8792 266.945V266.945Z" fill="url(#paint3_linear_411_167)"/>
<path d="M53.2226 262.181C61.0284 256.933 65.9284 250.556 64.1672 247.936C62.406 245.316 54.6505 247.446 46.8448 252.693C39.039 257.94 34.139 264.318 35.9002 266.938C37.6614 269.558 45.4169 267.428 53.2226 262.181Z" fill="#DE1250"/>
<path d="M345.965 112.403L344.322 133.208L364.159 132.032L345.965 112.403Z" fill="url(#paint4_linear_411_167)"/>
<path d="M345.965 112.403L368.475 116.938L364.16 132.032L345.965 112.403Z" fill="url(#paint5_linear_411_167)"/>
<path d="M303.848 140.764C304.006 139.47 303.533 138.249 302.672 137.405C303.319 136.786 303.77 135.948 303.888 134.992C304.135 132.989 302.869 131.16 300.985 130.631C301.058 130.395 301.12 130.148 301.148 129.894C301.423 127.689 299.854 125.686 297.654 125.41C297.238 125.36 296.833 125.371 296.444 125.444C296.315 123.565 294.869 121.978 292.928 121.742C291.882 121.613 290.886 121.9 290.093 122.474C289.552 121.185 288.365 120.218 286.88 120.032C285.519 119.863 284.23 120.398 283.381 121.348C282.779 120.78 282.002 120.386 281.119 120.279C278.914 120.004 276.911 121.573 276.635 123.773C276.635 123.779 276.635 123.784 276.635 123.79C274.582 123.723 272.776 125.23 272.517 127.312C272.241 129.517 273.811 131.52 276.011 131.796C276.629 131.875 277.231 131.796 277.788 131.61C276.793 133.433 276.101 135.537 275.819 137.821C274.835 145.782 279.189 152.871 285.552 153.664C287.578 153.918 289.564 153.496 291.358 152.55C291.73 152.725 292.14 152.849 292.568 152.899C294.773 153.175 296.776 151.605 297.052 149.405C297.103 149.012 297.086 148.629 297.029 148.258C299.1 148.348 300.928 146.834 301.187 144.741C301.215 144.511 301.221 144.286 301.21 144.061C302.594 143.566 303.657 142.334 303.848 140.775V140.764Z" fill="#1E1E1E"/>
<path d="M273.164 144.128C275.193 144.128 276.837 142.483 276.837 140.454C276.837 138.425 275.193 136.781 273.164 136.781C271.135 136.781 269.49 138.425 269.49 140.454C269.49 142.483 271.135 144.128 273.164 144.128Z" fill="white" stroke="#CC1B63" stroke-width="2" stroke-linecap="round" stroke-linejoin="round"/>
<path d="M283.954 140.843C283.954 140.843 278.244 138.418 278.531 129.512C278.531 129.512 275.116 127.914 273.974 132.741C272.832 137.568 271.909 154.407 275.47 155.904C278.447 157.158 281.473 155.797 281.473 155.797L282.779 162.289L293.44 160.81L292.365 152.545C292.365 152.545 287.853 152.68 286.177 146.525C286.177 146.525 288.652 146.216 288.782 142.981C288.911 139.746 285.119 139.093 283.949 140.848L283.954 140.843Z" fill="#D37540"/>
<path d="M283.69 140.544L269.737 139.144" stroke="#CC1B63" stroke-width="2" stroke-linecap="round" stroke-linejoin="round"/>
<path d="M273.169 149.518C273.169 149.518 274.227 149.709 275.06 148.095" stroke="black" stroke-width="1.5" stroke-linecap="round" stroke-linejoin="round"/>
<path d="M281.507 164.084C281.507 164.084 281.344 163.319 281.147 161.856C280.995 160.731 281.276 159.651 283.69 159.245C287.178 158.666 293.356 157.394 294.537 159.465C294.959 160.202 295.685 164.725 295.685 164.725C295.685 164.725 301.761 165.04 308.72 180C315.674 194.954 323.545 208.518 319.961 213.362C316.377 218.212 301.345 218.842 301.345 218.842C301.345 218.842 299.516 231.349 293.474 232.896C287.431 234.443 269.023 233.177 262.277 227.484C255.532 221.79 261.293 218.28 263.824 213.081C266.356 207.883 267.69 186.594 267.69 186.594L252.449 197.778C249.579 199.882 245.866 200.468 242.49 199.342L216.301 190.633C214.72 190.11 213.533 188.777 213.224 187.145C212.712 184.456 212.92 180.529 217.725 178.875C218.478 178.616 219.289 178.571 220.071 178.723L247.104 183.994L265.27 168.827C268.016 166.531 271.391 165.113 274.953 164.748L281.501 164.084H281.507Z" fill="url(#paint6_linear_411_167)"/>
<path d="M244.797 270.551L240.465 264.582C240.465 264.582 240.218 260.891 243.278 259.873C246.339 258.855 248.69 260.576 248.69 260.576L251.115 265.567L244.803 270.551H244.797Z" fill="#D37540"/>
<path d="M230.963 305.185C232.397 305.354 233.224 304.533 234.08 303.796C234.935 303.059 235.503 300.842 237.405 300.358C239.3 299.869 239.019 301.337 239.374 301.973C239.728 302.609 244.617 307.514 244.088 310.738C244.088 310.738 242.609 313.574 234.153 314.969C228.386 315.92 218.974 323.239 214.979 322.035C212.785 321.377 212.768 319.07 214.236 317.405C215.435 316.044 217.843 315.357 219.047 314.277C223.137 310.598 226.13 307.34 226.383 306.057C226.636 304.775 225.91 302.316 227.677 301.208C227.677 301.208 229.067 304.96 230.968 305.191L230.963 305.185Z" fill="#BA3DFE"/>
<path d="M214.979 322.03C214.979 322.03 216.819 322.801 223.204 319.65C229.59 316.499 231.143 315.582 234.147 314.963C237.151 314.345 240.426 314.063 244.083 310.733" stroke="black" stroke-width="3" stroke-linecap="round" stroke-linejoin="round"/>
<path d="M267.69 186.594L271.819 183.331" stroke="black" stroke-width="1.5" stroke-linecap="round" stroke-linejoin="round"/>
<path d="M247.104 183.995L245.05 185.806" stroke="black" stroke-width="1.5" stroke-linecap="round" stroke-linejoin="round"/>
<path d="M281.507 164.084L286.52 163.566" stroke="black" stroke-width="1.5" stroke-linecap="round" stroke-linejoin="round"/>
<path d="M306.014 178.903C306.014 178.903 306.402 198.752 301.345 218.842" stroke="black" stroke-width="1.5" stroke-linecap="round" stroke-linejoin="round"/>
<path d="M309.564 209.216L304.428 202.532" stroke="black" stroke-width="1.5" stroke-linecap="round" stroke-linejoin="round"/>
<path d="M222.974 238.021L257.782 225.52" stroke="url(#paint7_linear_411_167)" stroke-miterlimit="10" stroke-linecap="round"/>
<path d="M229.539 229.239C229.539 229.239 234.862 231.366 240.842 231.602" stroke="url(#paint8_linear_411_167)" stroke-miterlimit="10" stroke-linecap="round"/>
<path d="M230.873 255.727L247.841 251.198" stroke="url(#paint9_linear_411_167)" stroke-miterlimit="10" stroke-linecap="round"/>
<path d="M203.209 173.238L204.531 173.609" stroke="black" stroke-width="1.5" stroke-linecap="round" stroke-linejoin="round"/>
<path d="M198.467 176.191L199.969 175.769L203.502 176.321" stroke="black" stroke-width="1.5" stroke-linecap="round" stroke-linejoin="round"/>
<path d="M197.336 179.404L198.81 178.852L202 178.954" stroke="black" stroke-width="1.5" stroke-linecap="round" stroke-linejoin="round"/>
<path d="M201.313 182.329L200.368 181.564L198.708 181.947" stroke="black" stroke-width="1.5" stroke-linecap="round" stroke-linejoin="round"/>
<path d="M205.949 170.734C205.949 170.734 208.627 174.425 211.148 176.045" stroke="black" stroke-width="1.5" stroke-linecap="round" stroke-linejoin="round"/>
<path d="M255.323 268.532C255.323 268.532 252.465 261.628 248.212 263.682C243.514 265.955 244.156 271.373 245.208 275.694C246.26 280.014 242.153 289.342 246.997 290.029C253.878 291.002 254.586 278.068 254.586 278.068L255.323 268.532V268.532Z" fill="#BA3DFE"/>
<path d="M252.128 267.074C254.873 266.984 257.501 267.744 255.324 276.065H254.738C254.738 276.065 255.425 284.74 253.495 288.183C251.565 291.627 247.312 291.733 245.343 289.731C243.374 287.728 247.239 284.037 247.942 280.318C248.645 276.594 246.643 267.249 252.122 267.074H252.128Z" fill="#1E1E1E"/>
<path d="M245.309 279.058C245.309 279.058 244.538 272.447 243.036 268.121C243.036 268.121 244.651 270.247 245.489 269.668C246.327 269.089 246.682 272.897 246.581 274.957C246.479 277.016 245.315 279.052 245.315 279.052L245.309 279.058Z" fill="#BA3DFE"/>
<path d="M156.254 305.287L153.903 305.039C130.56 302.592 107.302 294.153 86.3506 280.526L85.1129 279.722V231.535L86.3506 232.339C107.302 245.965 130.56 254.405 153.903 256.852L156.254 257.099V305.287Z" fill="url(#paint10_linear_411_167)"/>
<path d="M326.51 115.807L312.484 111.559C293.609 105.843 273.991 102.94 254.266 102.94H241.512V51.7991H254.266C273.991 51.7991 293.603 54.7021 312.484 60.4182L326.51 64.6659V115.812V115.807Z" fill="#FF2B50"/>
<path d="M178.342 121.296C187.086 111.454 187.874 97.8779 180.102 90.9726C172.33 84.0672 158.941 86.4477 150.197 96.2896C141.453 106.131 140.665 119.708 148.437 126.613C156.209 133.518 169.598 131.138 178.342 121.296Z" fill="white" stroke="black" stroke-width="1.5" stroke-miterlimit="10"/>
<path d="M160.841 104.873C162.717 102.765 162.884 99.8528 161.215 98.3678C159.546 96.8828 156.672 97.3877 154.797 99.4955C152.922 101.603 152.754 104.516 154.424 106.001C156.093 107.486 158.966 106.981 160.841 104.873Z" fill="#1E1E1E"/>
<path d="M160.003 110.54C161.879 108.433 162.046 105.52 160.377 104.035C158.708 102.55 155.834 103.055 153.959 105.163C152.084 107.271 151.916 110.183 153.585 111.668C155.255 113.153 158.128 112.648 160.003 110.54Z" fill="#1E1E1E"/>
<path d="M163.532 113.907C165.407 111.799 165.575 108.886 163.905 107.401C162.236 105.916 159.363 106.421 157.488 108.529C155.612 110.637 155.445 113.549 157.114 115.034C158.783 116.519 161.657 116.014 163.532 113.907Z" fill="#1E1E1E"/>
<path d="M174.05 101.78C175.926 99.6722 176.093 96.7596 174.424 95.2746C172.755 93.7896 169.881 94.2945 168.006 96.4023C166.131 98.5101 165.963 101.423 167.633 102.908C169.302 104.393 172.175 103.888 174.05 101.78Z" fill="#1E1E1E"/>
<path d="M164.141 100.18C166.016 98.0722 166.183 95.1596 164.514 93.6746C162.845 92.1896 159.972 92.6945 158.096 94.8024C156.221 96.9102 156.054 99.8227 157.723 101.308C159.392 102.793 162.265 102.288 164.141 100.18Z" fill="#1E1E1E"/>
<path d="M170.687 99.5468C172.778 97.1975 172.965 93.9519 171.105 92.2976C169.246 90.6432 166.044 91.2065 163.954 93.5558C161.864 95.905 161.677 99.1506 163.536 100.805C165.396 102.459 168.597 101.896 170.687 99.5468Z" fill="#1E1E1E"/>
<path d="M174.888 107.058C176.763 104.95 176.93 102.038 175.261 100.553C173.592 99.0678 170.719 99.5727 168.843 101.681C166.968 103.788 166.801 106.701 168.47 108.186C170.139 109.671 173.012 109.166 174.888 107.058Z" fill="#1E1E1E"/>
<path d="M171.353 112.075C173.228 109.967 173.396 107.055 171.726 105.57C170.057 104.085 167.184 104.59 165.309 106.698C163.433 108.805 163.266 111.718 164.935 113.203C166.604 114.688 169.478 114.183 171.353 112.075Z" fill="#1E1E1E"/>
<path d="M159.18 110.203C157.593 110.574 156.311 109.59 156.311 108.003V107.137C156.311 106.254 157.031 105.365 157.914 105.157L159.185 104.858V110.203H159.18Z" fill="#D37540"/>
<path d="M170.1 107.643C171.687 107.272 172.969 105.685 172.969 104.099V103.232C172.969 102.349 172.249 101.798 171.366 102.006L170.094 102.304V107.649L170.1 107.643Z" fill="#D37540"/>
<path d="M180.463 122.372C178.826 120.887 176.733 119.942 174.359 119.655L170.049 119.132V117.382C170.049 116.409 169.262 115.807 168.288 116.037L161.256 117.686C160.283 117.911 159.495 118.884 159.495 119.857V121.388L154.488 123.914C151.05 125.652 148.113 128.589 146.319 132.089L141.885 140.736L171.383 133.827L179.777 126.856C181.307 125.585 181.633 123.436 180.458 122.372H180.463Z" fill="url(#paint11_linear_411_167)"/>
<path d="M168.092 116.904C166.044 118.496 163.574 119.07 161.532 118.44V114.366L168.092 112.831V116.904Z" fill="#D37540"/>
<path d="M168.092 114.434C165.987 115.897 163.636 116.448 161.532 115.97V114.366L168.092 112.831V114.434Z" fill="#1E1E1E"/>
<path d="M170.584 100.802V107.88C170.584 111.165 167.923 114.445 164.637 115.216C161.352 115.987 158.69 113.945 158.69 110.665V102.94C158.69 100.712 160.496 98.4898 162.719 97.9665L166.516 97.0776C168.761 96.5544 170.578 97.944 170.578 100.189V100.802H170.584Z" fill="#D37540"/>
<path d="M163.039 111.216C163.039 111.216 164.812 112.51 166.578 110.389" stroke="black" stroke-linecap="round" stroke-linejoin="round"/>
<path d="M173.767 100.291C174.946 98.9657 175.051 97.1343 174.002 96.2008C172.953 95.2672 171.146 95.585 169.967 96.9105C168.788 98.236 168.682 100.067 169.731 101.001C170.781 101.934 172.587 101.617 173.767 100.291Z" fill="#1E1E1E"/>
<path d="M171.242 97.8904C172.421 96.5649 172.527 94.7336 171.478 93.8C170.428 92.8665 168.622 93.1842 167.442 94.5097C166.263 95.8353 166.158 97.6666 167.207 98.6001C168.256 99.5337 170.063 99.2159 171.242 97.8904Z" fill="#1E1E1E"/>
<path d="M166.708 97.685C167.887 96.3595 167.992 94.5281 166.943 93.5946C165.894 92.661 164.087 92.9788 162.908 94.3043C161.728 95.6298 161.623 97.4611 162.672 98.3947C163.722 99.3282 165.528 99.0105 166.708 97.685Z" fill="#1E1E1E"/>
<path d="M162.414 99.3197C163.593 97.9942 163.699 96.1629 162.649 95.2293C161.6 94.2958 159.793 94.6136 158.614 95.9391C157.435 97.2646 157.329 99.0959 158.379 100.029C159.428 100.963 161.235 100.645 162.414 99.3197Z" fill="#1E1E1E"/>
<path d="M159.829 103.424C161.008 102.098 161.114 100.267 160.064 99.3335C159.015 98.3999 157.208 98.7177 156.029 100.043C154.85 101.369 154.744 103.2 155.794 104.134C156.843 105.067 158.65 104.749 159.829 103.424Z" fill="#1E1E1E"/>
<path d="M163.066 107.619C164.105 106.452 164.198 104.839 163.274 104.017C162.35 103.195 160.759 103.475 159.72 104.642C158.681 105.81 158.588 107.423 159.512 108.245C160.436 109.067 162.027 108.787 163.066 107.619Z" stroke="black" stroke-linecap="round" stroke-linejoin="round"/>
<path d="M169.56 106.097C170.599 104.929 170.692 103.316 169.769 102.494C168.845 101.672 167.253 101.952 166.215 103.12C165.176 104.287 165.082 105.9 166.006 106.722C166.93 107.544 168.521 107.264 169.56 106.097Z" stroke="black" stroke-linecap="round" stroke-linejoin="round"/>
<path d="M163.917 104.875L165.369 104.532" stroke="black" stroke-linecap="round" stroke-linejoin="round"/>
<path d="M178.342 121.296C187.086 111.454 187.874 97.8779 180.102 90.9726C172.33 84.0672 158.941 86.4477 150.197 96.2896C141.453 106.131 140.665 119.708 148.437 126.613C156.209 133.518 169.598 131.138 178.342 121.296Z" stroke="black" stroke-width="1.5" stroke-miterlimit="10"/>
<path d="M337.104 188.022C341.448 184.163 341.007 176.575 336.121 171.075C331.234 165.575 323.751 164.244 319.407 168.103C315.063 171.963 315.504 179.55 320.391 185.051C325.278 190.551 332.761 191.881 337.104 188.022Z" fill="white" stroke="black" stroke-width="1.5" stroke-miterlimit="10"/>
<path d="M326.69 168.883C326.69 168.883 322.358 167.533 322.144 172.686C321.93 177.84 322.088 179.775 320.664 181.992C319.241 184.208 318.622 185.12 319.05 186.864L337.526 190.206C337.526 190.206 337.661 188.698 336.209 186.042C334.758 183.387 334.274 180.045 334.246 176.304C334.218 172.562 331.613 167.572 326.69 168.889V168.883Z" fill="#843C31"/>
<path d="M324.749 176.765C323.793 176.591 323.016 175.674 323.016 174.717V174.194C323.016 173.66 323.449 173.305 323.984 173.401L324.749 173.541V176.771V176.765Z" fill="#FFA878"/>
<path d="M331.343 177.958C332.299 178.132 333.076 177.496 333.076 176.534V176.011C333.076 175.477 332.642 174.965 332.108 174.869L331.343 174.728V177.958V177.958Z" fill="#FFA878"/>
<path d="M337.599 189.452C336.609 188.147 335.343 187.05 333.914 186.279L331.309 184.883V183.826C331.309 183.241 330.831 182.678 330.246 182.571L325.998 181.8C325.413 181.694 324.935 182.082 324.935 182.672V183.595L321.913 183.865C319.837 184.051 318.065 185.092 316.979 186.751L314.301 190.864L332.119 194.088L337.188 191.984C338.111 191.601 338.308 190.386 337.599 189.446V189.452Z" fill="url(#paint12_linear_411_167)"/>
<path d="M330.128 183.049C328.89 183.499 327.399 183.229 326.167 182.335V179.876L330.128 180.591V183.049Z" fill="#FFA878"/>
<path d="M330.128 181.553C328.856 181.907 327.438 181.654 326.167 180.838V179.871L330.128 180.585V181.553Z" fill="#1E1E1E"/>
<path d="M331.635 173.946V178.222C331.635 180.203 330.026 181.519 328.046 181.165C326.065 180.805 324.456 178.909 324.456 176.923V172.259C324.456 170.914 325.548 170.019 326.893 170.267C326.893 170.267 327.826 173.361 331.641 173.952L331.635 173.946Z" fill="#FFA878"/>
<path d="M327.078 178.346C327.078 178.346 328.147 179.567 329.216 178.734" stroke="black" stroke-linecap="round" stroke-linejoin="round"/>
<path d="M337.104 188.022C341.448 184.163 341.007 176.575 336.121 171.075C331.234 165.575 323.751 164.244 319.407 168.103C315.063 171.963 315.504 179.55 320.391 185.051C325.278 190.551 332.761 191.881 337.104 188.022Z" stroke="black" stroke-width="1.5" stroke-miterlimit="10"/>
<path d="M277.203 72.4243L279.319 74.6128L283.977 69.6" stroke="white" stroke-width="3" stroke-linecap="round" stroke-linejoin="round"/>
<path d="M277.203 80.0982L279.319 82.2867L283.977 77.2739" stroke="white" stroke-width="3" stroke-linecap="round" stroke-linejoin="round"/>
<path d="M278.413 90.4501L282.154 86.4275" stroke="white" stroke-width="3" stroke-linecap="round" stroke-linejoin="round"/>
<path d="M278.413 86.4275L282.154 90.4501" stroke="white" stroke-width="3" stroke-linecap="round" stroke-linejoin="round"/>
<path d="M348.84 179.961C348.84 179.961 360.925 185.075 368.475 189.958" stroke="white" stroke-width="2" stroke-linecap="round" stroke-linejoin="round"/>
<path d="M348.84 186.937C348.84 186.937 360.925 192.051 368.475 196.934" stroke="white" stroke-width="2" stroke-linecap="round" stroke-linejoin="round"/>
<path d="M348.84 194.043C348.84 194.043 360.925 199.157 368.475 204.04" stroke="white" stroke-width="2" stroke-linecap="round" stroke-linejoin="round"/>
<path d="M344.024 178.183L344.947 179.961L348.84 176.495" stroke="white" stroke-width="2" stroke-linecap="round" stroke-linejoin="round"/>
<path d="M343.394 184.456L344.316 186.239L348.21 182.774" stroke="white" stroke-width="2" stroke-linecap="round" stroke-linejoin="round"/>
<path d="M342.539 190.734L343.456 192.518L347.354 189.047" stroke="white" stroke-width="2" stroke-linecap="round" stroke-linejoin="round"/>
<path d="M248.263 60.1313V95.6486C248.263 95.6486 263.014 95.6486 270.711 96.5994V60.8402C270.711 60.8402 261.085 59.6756 248.263 60.1369V60.1313Z" stroke="white" stroke-width="3" stroke-linecap="round" stroke-linejoin="round"/>
<path d="M268.202 93.038C271.486 93.038 274.148 90.3756 274.148 87.0913C274.148 83.807 271.486 81.1445 268.202 81.1445C264.917 81.1445 262.255 83.807 262.255 87.0913C262.255 90.3756 264.917 93.038 268.202 93.038Z" stroke="#004AB5" stroke-width="4" stroke-linecap="round" stroke-linejoin="round"/>
<path d="M276.725 98.1803L271.611 91.9579" stroke="#004AB5" stroke-width="4" stroke-linecap="round" stroke-linejoin="round"/>
<path d="M252.865 66.5956C252.865 66.5956 260.803 66.2468 266.497 67.1582" stroke="white" stroke-width="3" stroke-linecap="round" stroke-linejoin="round"/>
<path d="M252.865 70.7195C252.865 70.7195 260.803 70.3707 266.497 71.2821" stroke="white" stroke-width="3" stroke-linecap="round" stroke-linejoin="round"/>
<path d="M252.865 74.8378C252.865 74.8378 260.803 74.489 266.497 75.4004" stroke="white" stroke-width="3" stroke-linecap="round" stroke-linejoin="round"/>
<path d="M252.865 78.9617C252.865 78.9617 255.858 78.8267 259.487 78.9392" stroke="white" stroke-width="3" stroke-linecap="round" stroke-linejoin="round"/>
<path d="M111.42 148.775L88.1509 155.065C85.9511 155.662 84.162 154.356 84.162 152.157V140.758C84.162 138.559 85.9455 136.286 88.1509 135.695L111.42 129.405C113.62 128.809 115.409 130.114 115.409 132.314V143.712C115.409 145.912 113.626 148.185 111.42 148.775V148.775Z" fill="#FF2B50"/>
<path d="M85.5461 137.715L99.3412 142.092C99.6168 142.182 99.96 142.086 100.23 141.85L113.8 130.08" stroke="white" stroke-width="2" stroke-linecap="round" stroke-linejoin="round"/>
<path d="M292.208 71.614C292.208 71.614 309.238 74.7759 318.904 78.5622" stroke="white" stroke-width="3" stroke-linecap="round" stroke-linejoin="round"/>
<path d="M292.208 74.7703C292.208 74.7703 299.465 76.1205 307.201 78.1065" stroke="white" stroke-width="3" stroke-linecap="round" stroke-linejoin="round"/>
<path d="M292.208 84.2727C292.208 84.2727 299.465 85.623 307.201 87.609" stroke="white" stroke-width="3" stroke-linecap="round" stroke-linejoin="round"/>
<path d="M292.208 92.543C292.208 92.543 299.465 93.8932 307.201 95.8792" stroke="white" stroke-width="3" stroke-linecap="round" stroke-linejoin="round"/>
<path d="M292.208 81.1445C292.208 81.1445 309.238 84.3064 318.904 88.0927" stroke="white" stroke-width="3" stroke-linecap="round" stroke-linejoin="round"/>
<path d="M292.208 89.4486C292.208 89.4486 309.238 92.6104 318.904 96.3968" stroke="white" stroke-width="3" stroke-linecap="round" stroke-linejoin="round"/>
</g>
<defs>
<linearGradient id="paint0_linear_411_167" x1="210" y1="-67.2257" x2="210" y2="357.108" gradientUnits="userSpaceOnUse">
<stop stop-color="#E0BCF7"/>
<stop offset="0.23" stop-color="#E2C0F7"/>
<stop offset="0.49" stop-color="#E8CDF9"/>
<stop offset="0.75" stop-color="#F2E3FB"/>
<stop offset="1" stop-color="white"/>
</linearGradient>
<linearGradient id="paint1_linear_411_167" x1="346.242" y1="297.535" x2="326.181" y2="310.286" gradientUnits="userSpaceOnUse">
<stop stop-color="#FF1D4B"/>
<stop offset="0.2" stop-color="#F52164"/>
<stop offset="0.5" stop-color="#DB2DA4"/>
<stop offset="1" stop-color="#B83DFD"/>
</linearGradient>
<linearGradient id="paint2_linear_411_167" x1="318.743" y1="275.493" x2="328.762" y2="293.217" gradientUnits="userSpaceOnUse">
<stop stop-color="#FF1D4B"/>
<stop offset="0.2" stop-color="#F52164"/>
<stop offset="0.5" stop-color="#DB2DA4"/>
<stop offset="1" stop-color="#B83DFD"/>
</linearGradient>
<linearGradient id="paint3_linear_411_167" x1="39.7711" y1="272.649" x2="68.0381" y2="253.647" gradientUnits="userSpaceOnUse">
<stop stop-color="#FF1D4B"/>
<stop offset="1" stop-color="#FFC600"/>
</linearGradient>
<linearGradient id="paint4_linear_411_167" x1="349.568" y1="114.519" x2="355.408" y2="137.232" gradientUnits="userSpaceOnUse">
<stop stop-color="#FF1D4B"/>
<stop offset="1" stop-color="#FFC600"/>
</linearGradient>
<linearGradient id="paint5_linear_411_167" x1="377.118" y1="128.145" x2="350.011" y2="118.965" gradientUnits="userSpaceOnUse">
<stop stop-color="#FF1D4B"/>
<stop offset="1" stop-color="#FFC600"/>
</linearGradient>
<linearGradient id="paint6_linear_411_167" x1="266.947" y1="156.078" x2="266.947" y2="238.685" gradientUnits="userSpaceOnUse">
<stop stop-color="#FF1D4B"/>
<stop offset="0.2" stop-color="#F52164"/>
<stop offset="0.5" stop-color="#DB2DA4"/>
<stop offset="1" stop-color="#B83DFD"/>
</linearGradient>
<linearGradient id="paint7_linear_411_167" x1="222.692" y1="231.771" x2="258.063" y2="231.771" gradientUnits="userSpaceOnUse">
<stop stop-color="#1C48C0"/>
<stop offset="0.62" stop-color="#BA3DFE"/>
</linearGradient>
<linearGradient id="paint8_linear_411_167" x1="229.258" y1="230.421" x2="241.123" y2="230.421" gradientUnits="userSpaceOnUse">
<stop stop-color="#1C48C0"/>
<stop offset="0.62" stop-color="#BA3DFE"/>
</linearGradient>
<linearGradient id="paint9_linear_411_167" x1="230.591" y1="253.465" x2="248.122" y2="253.465" gradientUnits="userSpaceOnUse">
<stop stop-color="#1C48C0"/>
<stop offset="0.62" stop-color="#BA3DFE"/>
</linearGradient>
<linearGradient id="paint10_linear_411_167" x1="196.817" y1="254.531" x2="107.398" y2="289.008" gradientUnits="userSpaceOnUse">
<stop offset="0.13" stop-color="#1C48C0"/>
<stop offset="0.22" stop-color="#2747C4"/>
<stop offset="0.38" stop-color="#4744D1"/>
<stop offset="0.6" stop-color="#7A41E5"/>
<stop offset="0.83" stop-color="#BA3DFE"/>
</linearGradient>
<linearGradient id="paint11_linear_411_167" x1="334.822" y1="67.5513" x2="340.539" y2="91.9616" gradientUnits="userSpaceOnUse">
<stop stop-color="#FF1D4B"/>
<stop offset="0.2" stop-color="#F52164"/>
<stop offset="0.5" stop-color="#DB2DA4"/>
<stop offset="1" stop-color="#B83DFD"/>
</linearGradient>
<linearGradient id="paint12_linear_411_167" x1="383.917" y1="189.681" x2="381.191" y2="204.737" gradientUnits="userSpaceOnUse">
<stop stop-color="#1C48C0"/>
<stop offset="0.07" stop-color="#3B45CC"/>
<stop offset="0.16" stop-color="#6243DB"/>
<stop offset="0.26" stop-color="#8240E8"/>
<stop offset="0.37" stop-color="#9A3FF1"/>
<stop offset="0.48" stop-color="#AC3DF8"/>
<stop offset="0.59" stop-color="#B63DFC"/>
<stop offset="0.73" stop-color="#BA3DFE"/>
</linearGradient>
<clipPath id="clip0_411_167">
<rect width="360" height="360" fill="white" transform="translate(30)"/>
</clipPath>
</defs>
</svg>
