<svg width="148" height="28" viewBox="0 0 148 28" fill="none" xmlns="http://www.w3.org/2000/svg">
<g clip-path="url(#clip0_543_38981)">
<path fill-rule="evenodd" clip-rule="evenodd" d="M53.7008 10.2765C53.6973 10.2261 53.7047 10.1756 53.7223 10.1284C53.7399 10.0812 53.7673 10.0383 53.8028 10.0026C53.8382 9.96694 53.8809 9.93932 53.9279 9.92162C53.9748 9.90392 54.025 9.89654 54.075 9.89998C54.4272 9.89998 54.9595 10.2765 55.2593 11.0285C55.1516 11.0285 54.9896 11.0609 54.881 11.0609C54.239 11.0629 53.7008 10.7593 53.7008 10.2765ZM14.8992 10.2765C14.8953 10.2258 14.9023 10.1749 14.9198 10.1273C14.9373 10.0797 14.965 10.0364 15.0008 10.0006C15.0366 9.96483 15.0797 9.93727 15.1271 9.91989C15.1746 9.9025 15.2252 9.89571 15.2755 9.89998C15.6186 9.89998 16.1287 10.2765 16.4246 11.0285C15.4335 11.0295 14.8982 10.8139 14.8982 10.2765H14.8992ZM22.383 6.38885C22.383 2.36455 23.1628 1.74613 23.4043 1.74613C23.8349 1.74613 23.8862 2.01638 23.8862 3.5599C23.8366 5.26922 23.3162 6.93113 22.383 8.36051V6.38885ZM49.6258 10.3544C49.0656 11.1593 48.7729 12.1219 48.7897 13.1044C48.7897 15.3726 50.0756 17.5366 52.5739 17.5366C54.9886 17.5366 56.681 15.6135 56.681 12.9404C56.6979 12.5366 56.6713 12.132 56.6015 11.734C57.1133 11.4893 57.5915 11.179 58.0242 10.8109C58.2324 10.6131 58.4938 10.4811 58.7758 10.4313C59.0163 10.4313 59.1219 10.6206 59.1219 10.9708V16.2674C59.1219 17.1297 59.3936 17.5366 60.0617 17.5366C60.3448 17.5216 60.6174 17.424 60.8462 17.2558C61.0751 17.0876 61.2504 16.856 61.3506 16.5892C62.239 14.7259 63.5239 12.2431 64.0853 11.2997C64.2201 11.0831 64.3298 10.9172 64.4073 10.9172C64.5149 10.9172 64.5703 10.9991 64.5703 11.3493V15.5659C64.5703 16.7522 65.1086 17.5366 66.2808 17.5366C67.5183 17.5366 68.1321 16.3443 69.2127 14.5093C69.2573 14.427 69.2827 14.3356 69.2872 14.2421C69.2853 14.1885 69.2727 14.1359 69.25 14.0874C69.2274 14.0388 69.1952 13.9954 69.1554 13.9598C69.1156 13.9241 69.0691 13.8969 69.0186 13.8799C68.9681 13.8628 68.9147 13.8562 68.8616 13.8605C68.6181 13.8605 68.4832 14.1054 67.6803 14.9941C67.5173 15.1631 67.3594 15.3989 67.0615 15.3989C66.9549 15.3989 66.8734 15.2694 66.8734 15.1044V10.3777C66.8734 9.10848 66.3089 8.59634 65.5845 8.59634C65.2553 8.60279 64.934 8.69916 64.6551 8.87512C64.3761 9.05109 64.15 9.30003 64.0008 9.59532C63.1435 10.9671 62.3573 12.3827 61.6454 13.8362C61.588 13.9495 61.5116 14.1105 61.4592 14.1105C61.4069 14.1105 61.3798 14.0275 61.3798 13.8362V10.3797C61.3798 9.38277 61.1111 8.59836 60.0627 8.59836C58.962 8.59836 58.3995 9.35544 57.5936 9.92123C57.1855 10.2343 56.7473 10.5056 56.2856 10.7309C56.1402 10.1905 55.8374 9.70626 55.4162 9.34031C54.9951 8.97435 54.4747 8.74346 53.9221 8.67731C53.7343 8.66689 53.5465 8.69601 53.3706 8.7628C53.1946 8.82959 53.0345 8.93259 52.9004 9.0652C52.7663 9.19781 52.6612 9.35712 52.5918 9.53293C52.5224 9.70874 52.4902 9.89719 52.4974 10.0862C52.494 10.4785 52.6141 10.8619 52.8406 11.1814C53.0671 11.5008 53.3882 11.7399 53.7581 11.8645C54.1797 12.0174 54.6277 12.0828 55.0752 12.0568C55.2177 12.0643 55.3607 12.0541 55.5008 12.0265C55.5402 12.341 55.5507 12.6584 55.532 12.9748C55.5647 13.2969 55.5324 13.6223 55.437 13.9315C55.3416 14.2407 55.1851 14.5273 54.9769 14.7741C54.7686 15.0209 54.5129 15.2228 54.2252 15.3678C53.9374 15.5127 53.6235 15.5977 53.3023 15.6176C51.7931 15.6176 50.9137 14.1591 50.9137 12.487C50.8735 11.3853 51.2233 10.305 51.9007 9.43844C52.1482 9.16617 52.3334 9.00221 52.3334 8.75221C52.3334 8.62569 52.1493 8.59431 51.9863 8.59431C50.9619 8.6601 49.965 8.95506 49.0684 9.45767C47.9111 10.1086 46.8309 10.8896 45.8487 11.7856C45.3657 10.7026 44.7761 9.76132 44.4793 9.0265C44.3726 8.72994 44.2952 8.38581 44.0768 8.38581C43.8867 8.38581 43.8032 8.57407 43.6744 8.94654C42.6901 11.1331 41.4758 13.2074 40.0522 15.1338C39.9989 15.2107 39.9214 15.2967 39.8952 15.2967C39.8369 15.2967 39.8067 15.2704 39.8067 15.1054V10.3787C39.8067 9.10949 39.2976 8.59735 38.6053 8.59735C38.2753 8.60021 37.9526 8.6951 37.673 8.87147C37.3934 9.04783 37.1679 9.29876 37.0216 9.59634C36.1372 10.9495 35.0596 12.9202 34.5515 13.8898C34.47 14.0568 34.3885 14.1085 34.3614 14.1085C34.3342 14.1085 34.3131 14.0012 34.3131 13.8342V10.3797C34.3131 9.1105 33.8009 8.59836 33.1057 8.59836C32.7706 8.59317 32.441 8.68446 32.1558 8.86145C31.8706 9.03845 31.6416 9.29378 31.4958 9.59735C30.3709 11.5204 28.4934 14.4556 28.1443 14.9425C28.1056 15.0105 28.0497 15.0671 27.9823 15.1064C27.929 15.1064 27.8988 15.0538 27.8988 14.9202V10.3797C27.8988 9.1105 27.3897 8.59836 26.6914 8.59836C25.7235 8.59836 25.1892 9.49411 24.8371 10.0578C24.3521 10.8412 23.7102 11.8959 23.202 12.8696C23.0124 13.3206 22.7537 13.739 22.4354 14.1095C22.384 14.1095 22.384 13.8645 22.384 13.407V9.79067C24.0998 7.96153 25.0754 5.55417 25.1198 3.03966C25.1198 1.57913 24.4789 0.772445 23.4878 0.772445C21.6314 0.772445 20.2127 3.68945 20.2127 7.14289V9.94957C19.3985 10.4534 18.4946 10.793 17.5515 10.9495C17.4244 10.3655 17.1225 9.83468 16.6865 9.42844C16.2504 9.02219 15.7011 8.76006 15.1125 8.67731C14.9249 8.66733 14.7372 8.6968 14.5615 8.76383C14.3858 8.83087 14.226 8.93401 14.0921 9.06667C13.9582 9.19933 13.8533 9.35859 13.7841 9.53431C13.7148 9.71003 13.6827 9.89834 13.6898 10.0872C13.6898 11.5163 15.0864 12.1115 16.3169 12.1115H16.666C16.7102 12.3977 16.7277 12.6874 16.7184 12.9769C16.751 13.2983 16.7187 13.6231 16.6236 13.9317C16.5285 14.2403 16.3725 14.5265 16.1649 14.773C15.9573 15.0196 15.7024 15.2214 15.4154 15.3665C15.1284 15.5117 14.8153 15.597 14.4947 15.6176C12.9926 15.6176 12.1051 14.1591 12.1051 12.487C12.0636 11.3846 12.4147 10.3035 13.0952 9.43844C13.3029 9.25709 13.4533 9.01854 13.5278 8.75221C13.5278 8.62569 13.3387 8.59431 13.1757 8.59431C12.1564 8.59431 9.90469 9.9769 7.21925 12.6763C6.93617 10.5798 6.76655 8.46942 6.71114 6.35443C6.73298 4.73819 6.92011 3.12849 7.26956 1.55079C7.3148 1.31078 7.34404 1.068 7.35709 0.824065C7.35709 0.606453 7.24239 0.495117 6.95463 0.495117C4.7773 0.500178 -0.00195312 3.985 -0.00195312 9.19553C-0.00195312 12.8908 1.34328 14.6742 3.67354 16.9688C2.18504 19.1838 1.30606 21.7557 1.12595 24.4232C1.12595 26.1753 1.52841 27.5022 2.8173 27.5022C5.50173 27.5022 7.51305 21.8898 7.51305 17.7289C7.51305 16.488 7.46374 15.2441 7.3581 14.0052C8.22515 13.0289 9.19507 12.1503 10.2508 11.3848C10.0848 11.9435 9.99478 12.5223 9.98317 13.1054C9.98317 15.3736 11.274 17.5376 13.7673 17.5376C16.1056 17.5376 17.8734 15.6145 17.8734 12.9414C17.8734 12.5963 17.8463 12.2957 17.8221 11.9728C18.6624 11.8426 19.4721 11.5596 20.2117 11.1378V16.5639C20.2008 16.6919 20.2172 16.8207 20.26 16.9417C20.3027 17.0628 20.3708 17.1732 20.4596 17.2654C20.5484 17.3577 20.6558 17.4298 20.7747 17.4767C20.8935 17.5237 21.021 17.5444 21.1485 17.5376C21.7693 17.5376 22.0912 17.1024 22.543 16.1095C22.9233 15.2997 23.9396 13.4344 24.5553 12.324C25.0413 11.4576 25.31 10.8949 25.5263 10.8949C25.5766 10.8949 25.6339 11.0265 25.6339 11.3514V15.9718C25.6339 17.2147 26.2779 17.5396 26.8353 17.5396C27.0912 17.5269 27.3396 17.4481 27.5563 17.3107C27.7731 17.1733 27.951 16.982 28.0729 16.7552C29.4704 14.7552 30.9485 12.3817 31.5341 11.3524C31.6427 11.1682 31.7755 11.0275 31.8842 11.0275C31.9929 11.0275 32.0432 11.0862 32.0432 11.4323V16.2694C32.0432 17.1317 32.3118 17.5386 32.9859 17.5386C33.2646 17.5225 33.5322 17.4239 33.7554 17.2554C33.9786 17.0869 34.1474 16.8559 34.2406 16.5912C35.1321 14.7279 36.4441 12.2694 37.0106 11.3018C37.1414 11.0852 37.2772 10.8969 37.3567 10.8969C37.4684 10.8969 37.4925 11.0285 37.4925 11.3827V15.9718C37.4925 17.2147 38.1365 17.5396 38.6999 17.5396C39.4445 17.5396 39.9335 16.9971 40.4154 16.3787C41.2958 15.2127 42.5847 13.1398 43.3645 11.8129C43.6696 12.2983 43.9386 12.8058 44.1694 13.3311C43.4602 14.033 43.0056 14.9539 42.8785 15.9465C42.864 16.1467 42.89 16.3477 42.9548 16.5375C43.0196 16.7272 43.1219 16.9019 43.2556 17.0508C43.3893 17.1998 43.5515 17.32 43.7326 17.4041C43.9137 17.4883 44.1099 17.5347 44.3093 17.5406C44.9937 17.4748 45.6249 17.1406 46.0663 16.6102C46.5077 16.0799 46.7237 15.396 46.6677 14.7066C46.6419 14.0301 46.4981 13.3635 46.2431 12.737C47.1784 11.6982 48.3347 10.8851 49.6258 10.3585V10.3544ZM5.41923 16.2431C5.64446 17.5458 5.77895 18.8628 5.82169 20.1844C5.82169 22.7724 4.96545 25.7967 3.48841 25.7724C2.91792 25.7724 2.43899 25.1985 2.41484 24.2056C2.48366 21.2848 3.54263 18.4754 5.41621 16.2431H5.41923ZM44.6021 14.403C44.7528 14.7906 44.8355 15.2015 44.8465 15.6176C44.8465 16.0508 44.6846 16.4829 44.3877 16.4829C44.1764 16.4829 43.9611 16.24 43.9611 15.8605C44.049 15.328 44.2695 14.8266 44.6021 14.403ZM6.38816 1.5265C6.38816 1.69148 6.01186 2.44451 5.53091 3.79674C4.86574 5.65755 4.52865 7.62091 4.53481 9.59836C4.63357 11.3577 4.85039 13.1083 5.18379 14.8382L4.32453 16.0022C2.74981 14.1001 1.9534 11.6666 2.09689 9.19553C2.09689 4.60747 4.86081 1.42427 6.2805 1.42427C6.36502 1.42427 6.38917 1.44856 6.38917 1.52548L6.38816 1.5265Z" fill="#D51900"/>
<path fill-rule="evenodd" clip-rule="evenodd" d="M132.412 10.2764C132.407 10.2259 132.414 10.1751 132.432 10.1276C132.449 10.08 132.476 10.0368 132.512 10.001C132.548 9.96515 132.591 9.93756 132.638 9.9201C132.685 9.90264 132.736 9.89573 132.786 9.89987C133.132 9.89987 133.67 10.2764 133.964 11.0284C133.863 11.0284 133.698 11.0608 133.586 11.0608C132.947 11.0629 132.412 10.7592 132.412 10.2764ZM93.6024 10.2764C93.5989 10.2259 93.6063 10.1752 93.624 10.1278C93.6418 10.0804 93.6694 10.0374 93.7051 10.0017C93.7408 9.96598 93.7837 9.93841 93.8309 9.92084C93.8781 9.90327 93.9285 9.89612 93.9787 9.89987C94.3278 9.89987 94.843 10.2764 95.1317 11.0284C94.1387 11.0295 93.6024 10.8139 93.6024 10.2764ZM101.09 6.38873C101.09 2.36444 101.865 1.74602 102.109 1.74602C102.538 1.74602 102.592 2.01626 102.592 3.55979C102.542 5.26886 102.022 6.93052 101.09 8.36039V6.38873ZM84.1365 16.243C84.3574 17.5464 84.4918 18.863 84.5389 20.1843C84.5389 22.7724 83.6817 25.7967 82.2016 25.7724C81.6392 25.7724 81.1562 25.1985 81.129 24.2056C81.198 21.2838 82.2594 18.4738 84.1365 16.243ZM123.314 14.4029C123.463 14.7907 123.544 15.2017 123.553 15.6175C123.553 16.0507 123.392 16.4829 123.098 16.4829C122.885 16.4829 122.665 16.24 122.665 15.8604C122.754 15.3269 122.978 14.8253 123.314 14.4029ZM85.0923 1.52639C85.0923 1.69137 84.72 2.4444 84.234 3.79663C83.572 5.65819 83.236 7.62116 83.241 9.59825C83.3425 11.3575 83.56 13.108 83.8919 14.8382L83.0297 16.0021C81.4559 14.0994 80.659 11.6666 80.8 9.19541C80.8 4.60736 83.57 1.42416 84.9897 1.42416C85.0671 1.42416 85.0903 1.44845 85.0903 1.52537L85.0923 1.52639ZM80.6149 15.0264C81.1507 15.7217 81.7423 16.3717 82.3837 16.9697C80.8911 19.1821 80.011 21.7544 79.8341 24.4222C79.8341 26.1742 80.2366 27.5011 81.5285 27.5011C84.2089 27.5011 86.2202 21.8888 86.2202 17.7278C86.2202 16.487 86.1679 15.243 86.0602 14.0042C86.9304 13.0259 87.9049 12.1468 88.966 11.3827C88.7971 11.941 88.705 12.5199 88.6923 13.1033C88.6923 15.3716 89.9822 17.5355 92.4805 17.5355C94.8128 17.5355 96.5837 15.6125 96.5837 12.9394C96.5837 12.5942 96.5585 12.2936 96.5293 11.9708C97.3702 11.8418 98.1805 11.5587 98.92 11.1357V16.5619C98.909 16.6895 98.9254 16.8181 98.968 16.9389C99.0106 17.0597 99.0783 17.1699 99.1668 17.2622C99.2552 17.3544 99.3623 17.4265 99.4808 17.4737C99.5993 17.5208 99.7264 17.5419 99.8537 17.5355C100.479 17.5355 100.8 17.1003 101.255 16.1074C101.629 15.2977 102.651 13.4323 103.267 12.322C103.749 11.4556 104.017 10.8928 104.237 10.8928C104.287 10.8928 104.338 11.0244 104.338 11.3493V15.9718C104.338 17.2147 104.98 17.5396 105.545 17.5396C105.801 17.5264 106.05 17.4473 106.267 17.31C106.484 17.1727 106.663 16.9817 106.786 16.7552C108.177 14.7552 109.655 12.3817 110.244 11.3523C110.352 11.1681 110.487 11.0274 110.591 11.0274C110.695 11.0274 110.755 11.0861 110.755 11.4323V16.2693C110.755 17.1317 111.021 17.5386 111.691 17.5386C111.971 17.5227 112.24 17.4245 112.464 17.256C112.689 17.0876 112.859 16.8564 112.954 16.5912C113.841 14.7278 115.155 12.2693 115.716 11.3017C115.853 11.0851 115.987 10.8969 116.071 10.8969C116.171 10.8969 116.204 11.0284 116.204 11.3827V15.9718C116.204 17.2147 116.842 17.5396 117.405 17.5396C118.161 17.5396 118.645 16.9971 119.124 16.3787C120.01 15.2127 121.301 13.1398 122.078 11.8129C122.382 12.299 122.651 12.8064 122.883 13.3311C122.172 14.0314 121.718 14.9533 121.594 15.9465C121.579 16.1462 121.603 16.347 121.667 16.5369C121.73 16.7267 121.832 16.9016 121.964 17.051C122.097 17.2004 122.259 17.3212 122.439 17.406C122.619 17.4909 122.815 17.538 123.014 17.5446C123.699 17.4788 124.33 17.1446 124.771 16.6142C125.212 16.0839 125.429 15.4 125.373 14.7106C125.346 14.0338 125.201 13.367 124.944 12.741C125.881 11.7043 127.036 10.8915 128.326 10.3625C127.769 11.1692 127.478 12.1309 127.493 13.1125C127.493 15.3807 128.783 17.5446 131.28 17.5446C133.694 17.5446 135.381 15.6216 135.381 12.9485C135.398 12.5448 135.373 12.1404 135.305 11.742C135.817 11.4957 136.295 11.1855 136.729 10.8189C136.935 10.6218 137.194 10.4898 137.475 10.4394C137.717 10.4394 137.831 10.6287 137.831 10.9789V16.2754C137.831 17.1378 138.095 17.5446 138.766 17.5446C139.049 17.5291 139.322 17.4313 139.551 17.2632C139.78 17.095 139.955 16.8637 140.056 16.5973C140.937 14.7339 142.227 12.2511 142.788 11.3078C142.922 11.0912 143.032 10.9252 143.113 10.9252C143.223 10.9252 143.275 11.0072 143.275 11.3574V15.574C143.275 16.7602 143.807 17.5446 144.991 17.5446C146.229 17.5446 146.845 16.3523 147.92 14.5173C147.964 14.4349 147.99 14.3437 147.996 14.2501C147.993 14.1966 147.98 14.1443 147.956 14.0961C147.933 14.0479 147.901 14.0048 147.861 13.9693C147.821 13.9338 147.775 13.9066 147.724 13.8893C147.674 13.872 147.62 13.865 147.567 13.8685C147.328 13.8685 147.19 14.1135 146.387 15.0021C146.228 15.1712 146.064 15.407 145.77 15.407C145.66 15.407 145.584 15.2774 145.584 15.1125V10.3857C145.584 9.11647 145.014 8.60432 144.289 8.60432C143.961 8.61096 143.64 8.70744 143.362 8.88342C143.083 9.05941 142.858 9.30827 142.71 9.60331C141.85 10.9731 141.063 12.3877 140.352 13.8412C140.294 13.9546 140.216 14.1155 140.159 14.1155C140.102 14.1155 140.081 14.0325 140.081 13.8412V10.3797C140.081 9.38266 139.812 8.59825 138.765 8.59825C137.659 8.59825 137.102 9.35533 136.297 9.92112C135.885 10.2349 135.443 10.5061 134.977 10.7309C134.834 10.1908 134.532 9.70637 134.112 9.34028C133.692 8.9742 133.173 8.74323 132.621 8.6772C132.433 8.66659 132.245 8.6956 132.07 8.76236C131.894 8.82912 131.734 8.93217 131.6 9.06486C131.466 9.19755 131.361 9.35696 131.292 9.53285C131.223 9.70873 131.191 9.89718 131.199 10.0861C131.195 10.4778 131.314 10.8607 131.54 11.1801C131.765 11.4994 132.085 11.739 132.454 11.8645C132.877 12.0175 133.328 12.0829 133.777 12.0568C133.92 12.0636 134.064 12.0534 134.205 12.0264C134.239 12.3413 134.248 12.6585 134.23 12.9748C134.262 13.297 134.23 13.6224 134.134 13.9317C134.039 14.2409 133.882 14.5276 133.674 14.7745C133.466 15.0213 133.21 15.2234 132.922 15.3684C132.634 15.5135 132.32 15.5985 131.999 15.6185C130.497 15.6185 129.615 14.16 129.615 12.488C129.575 11.386 129.925 10.3054 130.604 9.43934C130.848 9.16707 131.038 9.00311 131.038 8.75311C131.038 8.62659 130.849 8.59521 130.688 8.59521C129.661 8.66147 128.662 8.95637 127.763 9.45857C126.605 10.1091 125.525 10.8901 124.543 11.7865C124.058 10.7036 123.472 9.76222 123.173 9.0274C123.062 8.73084 122.99 8.38671 122.771 8.38671C122.585 8.38671 122.503 8.57497 122.368 8.94744C121.383 11.1335 120.168 13.2077 118.746 15.1347C118.692 15.2116 118.612 15.2977 118.583 15.2977C118.533 15.2977 118.503 15.2714 118.503 15.1064V10.3797C118.503 9.11039 118 8.59825 117.296 8.59825C116.966 8.60206 116.644 8.69735 116.365 8.87363C116.086 9.04991 115.861 9.30032 115.714 9.59724C114.827 10.9505 113.757 12.9212 113.246 13.8908C113.168 14.0578 113.088 14.1094 113.063 14.1094C113.038 14.1094 113.005 14.0021 113.005 13.8351V10.3797C113.005 9.11039 112.502 8.59825 111.797 8.59825C111.462 8.59219 111.132 8.68312 110.847 8.86021C110.561 9.03731 110.333 9.29312 110.188 9.59724C109.057 11.5204 107.181 14.4556 106.83 14.9424C106.794 15.0128 106.738 15.0701 106.668 15.1064C106.621 15.1064 106.589 15.0538 106.589 14.9201V10.3797C106.589 9.11039 106.081 8.59825 105.382 8.59825C104.413 8.59825 103.88 9.494 103.529 10.0578C103.046 10.8412 102.406 11.8959 101.894 12.8695C101.71 13.32 101.457 13.7387 101.144 14.1104C101.09 14.1104 101.09 13.8655 101.09 13.408V9.79056C102.808 7.96271 103.784 5.55454 103.826 3.03954C103.826 1.57902 103.184 0.772338 102.187 0.772338C100.337 0.772338 98.9169 3.68934 98.9169 7.14278V9.94946C98.1027 10.4532 97.1988 10.7928 96.2556 10.9495C96.1294 10.3659 95.8284 9.83525 95.3933 9.42899C94.9581 9.02273 94.4096 8.76035 93.8217 8.6772C93.6338 8.66646 93.4456 8.69539 93.2695 8.76212C93.0933 8.82885 92.9329 8.93191 92.7986 9.06468C92.6644 9.19745 92.5592 9.357 92.4898 9.53308C92.4205 9.70916 92.3885 9.89787 92.396 10.0872C92.396 11.5163 93.7875 12.1114 95.0241 12.1114H95.3752C95.4169 12.3979 95.4334 12.6875 95.4246 12.9768C95.4577 13.2987 95.4259 13.624 95.3309 13.9332C95.2359 14.2423 95.0798 14.529 94.8719 14.7759C94.664 15.0229 94.4087 15.225 94.1212 15.3701C93.8337 15.5153 93.52 15.6005 93.1989 15.6206C91.6957 15.6206 90.8143 14.1621 90.8143 12.49C90.7745 11.3882 91.1246 10.3079 91.8024 9.44137C92.0089 9.25936 92.1585 9.02098 92.233 8.75513C92.233 8.62861 92.0439 8.59723 91.8849 8.59723C90.8636 8.59723 88.6108 9.97983 85.9244 12.6793C85.6439 10.5826 85.476 8.47221 85.4213 6.35736C85.4439 4.74088 85.6327 3.13109 85.9847 1.55371C86.0285 1.31362 86.0561 1.07083 86.0673 0.826994C86.0673 0.609383 85.9576 0.498047 85.6648 0.498047C83.4905 0.498047 78.7122 3.98286 78.7122 9.19339C78.6459 10.9368 79.0839 12.6621 79.973 14.16C79.7233 14.119 79.4703 14.1013 79.2173 14.1074C78.4858 14.1344 77.7596 14.2434 77.0521 14.4323V13.8898C77.1052 12.7432 76.8435 11.604 76.2955 10.5973C76.2375 10.5443 76.1614 10.5159 76.0832 10.5183C75.8056 10.5435 75.5381 10.6355 75.3034 10.7865C74.9774 10.9495 74.6564 11.1135 74.6564 11.2187C74.6563 11.3054 74.6846 11.3897 74.7369 11.4586C75.2245 12.0535 75.5319 12.7769 75.6223 13.5426C75.1926 13.0992 74.6748 12.7519 74.1027 12.5233C73.5306 12.2946 72.917 12.1898 72.302 12.2157C70.6921 12.2157 70.2031 12.9424 70.2031 13.6762C70.2031 15.0801 72.0555 15.7815 74.3938 15.7815C74.8628 15.7685 75.329 15.7044 75.7843 15.5902C75.7843 16.0234 75.8386 16.406 75.8386 16.7278C75.8386 17.1874 75.9161 17.5376 76.216 17.5376C76.6707 17.5376 76.9414 16.6155 76.9927 15.2957C77.7787 15.0641 78.5894 14.9282 79.4075 14.8908C79.8131 14.8974 80.2173 14.9415 80.6149 15.0224V15.0264ZM75.3285 14.7562C74.9277 14.8015 74.5243 14.8194 74.1211 14.8098C73.0717 14.8098 72.298 14.405 72.298 13.8139C72.298 13.4363 72.4831 13.2177 73.0204 13.2177C73.8807 13.2177 74.5749 13.8139 75.3275 14.7562H75.3285Z" fill="#D51900"/>
</g>
<defs>
<clipPath id="clip0_543_38981">
<rect width="148" height="28" fill="white"/>
</clipPath>
</defs>
</svg>