<svg width="88" height="28" viewBox="0 0 88 28" fill="none" xmlns="http://www.w3.org/2000/svg">
<g clip-path="url(#clip0_543_38961)">
<path d="M14.0494 28C21.8087 28 28.0988 21.732 28.0988 14C28.0988 6.26802 21.8087 0 14.0494 0C6.29013 0 0 6.26802 0 14C0 21.732 6.29013 28 14.0494 28Z" fill="white"/>
<path d="M21.9682 3.56353C19.7178 1.86946 16.9721 0.957321 14.1518 0.966871C11.7411 0.968196 9.37814 1.63597 7.32571 2.89589C5.27329 4.15581 3.61191 5.95847 2.52642 8.10329C1.44094 10.2481 0.973915 12.651 1.17733 15.0446C1.38074 17.4381 2.24661 19.7285 3.67858 21.661C8.00132 20.4004 11.9402 18.0854 15.1386 14.9253C18.3371 11.7652 20.6939 7.86014 21.9956 3.56353" fill="#EB1933"/>
<path d="M25.0342 7.12595C25.6001 8.93394 25.5841 10.873 24.9887 12.6716C24.3932 14.47 23.248 16.0379 21.7135 17.1553C17.7799 20.0321 12.0071 20.0574 4.08789 22.5009C6.19754 25.1012 9.23265 26.79 12.5609 27.2156C15.8892 27.6412 19.2539 26.7706 21.954 24.7854C24.6541 22.8002 26.4814 19.8535 27.0552 16.5589C27.6291 13.2644 26.9051 9.87636 25.0342 7.10059" fill="#2151A1"/>
<path d="M38.5722 9.92668C39.0993 9.93192 39.6199 10.0422 40.1033 10.251C40.5869 10.4597 41.0236 10.7628 41.3878 11.1424C41.752 11.522 42.0364 11.9703 42.224 12.461C42.4117 12.9517 42.4988 13.4749 42.4805 13.9998C42.5049 14.5202 42.424 15.0404 42.2426 15.5291C42.0611 16.0179 41.7829 16.4653 41.4243 16.8446C41.0657 17.224 40.6342 17.5274 40.1555 17.7372C39.6768 17.9469 39.1606 18.0585 38.6376 18.0654C38.1147 18.0721 37.5959 17.974 37.1117 17.7768C36.6276 17.5797 36.1884 17.2874 35.82 16.9176C35.4516 16.5476 35.1616 16.1077 34.9675 15.6239C34.7733 15.14 34.6787 14.6222 34.6895 14.1012C34.6649 13.0371 35.0607 12.0059 35.7917 11.2298C36.5228 10.4538 37.5304 9.99486 38.5978 9.95204L38.5722 9.92668ZM38.8533 20.083C39.626 20.0866 40.3917 19.9378 41.1064 19.645C41.821 19.3523 42.4704 18.9214 43.0171 18.3772C44.1474 17.2201 44.772 15.6641 44.7543 14.0495C44.7811 12.5674 44.2613 11.1271 43.2934 10.0015C42.3255 8.87593 40.9769 8.14331 39.503 7.94253C38.0293 7.74175 36.5328 8.08677 35.2973 8.91219C34.0616 9.7376 33.173 10.986 32.7995 12.4209C32.6186 13.3428 32.5329 14.2809 32.5439 15.2204V23.8242C32.5439 23.8917 32.5708 23.9566 32.6189 24.0043C32.6668 24.0521 32.7318 24.0789 32.7995 24.0789H34.3321C34.3999 24.0789 34.4649 24.0521 34.5128 24.0043C34.5607 23.9566 34.5876 23.8917 34.5876 23.8242V18.4025C35.6337 19.4147 37.0141 20.0121 38.4704 20.083" fill="#2151A1"/>
<path d="M52.6231 13.4906L51.0905 13.4145C50.2183 13.4137 49.3529 13.569 48.5357 13.8731V13.797C48.6509 12.9004 49.0583 12.0663 49.6951 11.4226C50.3318 10.7788 51.1631 10.3611 52.061 10.2334L52.5702 10.208C53.4626 10.2377 54.3225 10.5497 55.0251 11.0989C55.7277 11.648 56.2367 12.4057 56.4784 13.2623C55.2123 13.5932 53.8944 13.6797 52.5957 13.517L52.6231 13.4906ZM58.4987 13.516C58.3522 12.0601 57.6716 10.7095 56.5873 9.72301C55.5029 8.73651 54.0913 8.18365 52.6231 8.17045C51.7493 8.16618 50.8851 8.35141 50.0902 8.71331C49.2954 9.07521 48.5892 9.60512 48.0205 10.2662C47.4518 10.9273 47.0343 11.7039 46.7969 12.5418C46.5595 13.3799 46.5079 14.2593 46.6457 15.1192C46.808 16.5779 47.5106 17.9239 48.6162 18.8937C49.7217 19.8636 51.1504 20.3876 52.6231 20.3632C52.8787 20.3632 53.1322 20.3379 53.3899 20.3125C54.1924 20.2348 54.9714 19.9991 55.6819 19.619C56.3923 19.2389 57.0198 18.7221 57.5282 18.0984C57.5616 18.0681 57.5874 18.0304 57.6034 17.9883C57.6193 17.9462 57.625 17.9009 57.6201 17.8561C57.6152 17.8114 57.5996 17.7685 57.5748 17.7309C57.55 17.6933 57.5166 17.6621 57.4773 17.6398C57.0171 17.3851 56.0721 16.9294 56.0721 16.9294C55.9967 16.8718 55.902 16.845 55.8074 16.8544C55.7129 16.8638 55.6254 16.9088 55.563 16.9802C55.1098 17.4984 54.5299 17.8908 53.8793 18.1193C53.2288 18.3477 52.53 18.4046 51.8511 18.2841C51.172 18.1637 50.5358 17.8701 50.0045 17.4319C49.4731 16.9937 49.0646 16.426 48.8188 15.7838V15.7331C49.9044 15.2922 51.1019 15.2031 52.2412 15.4784C53.3887 15.6803 54.5604 15.7059 55.7156 15.5545C56.6344 15.4305 57.5198 15.1277 58.3215 14.6636C58.4175 14.6087 58.4939 14.525 58.5397 14.4245C58.5856 14.324 58.5986 14.2117 58.5771 14.1035L58.4987 13.516ZM73.8271 18.3288C75.0702 19.5568 76.7516 20.2432 78.5021 20.2374H78.553C81.8227 20.212 83.2789 18.4555 83.2789 16.6738C83.2789 14.2556 80.9796 13.6195 80.2902 13.4408C79.5234 13.2876 78.6293 13.1365 77.8891 12.9335C77.5062 12.8321 76.2802 12.4262 76.2802 11.5129C76.2802 10.4982 77.4003 9.98578 78.4511 9.98578C79.3854 9.94895 80.2987 10.2674 81.0061 10.8767C81.086 10.9479 81.1882 10.9892 81.2953 10.9939C81.4024 10.9985 81.5078 10.9661 81.5937 10.9021L82.6119 9.98882C82.7911 9.81024 82.7392 9.65803 82.5609 9.48146C81.3899 8.50823 79.8948 8.00849 78.3717 8.08116C75.9197 8.08116 74.0806 9.65904 74.0806 11.7209C74.0806 13.3759 75.4349 14.5206 77.9125 15.03L79.445 15.3343C80.4633 15.513 81.0285 16.0446 80.9776 16.8108C80.1344 19.2288 76.8138 18.3886 75.4085 17.0136H75.383C75.2038 16.8604 75.1275 16.8605 74.9227 16.9883L73.7008 18.003C73.5735 18.1552 73.6245 18.2577 73.7517 18.4089L73.8271 18.3288ZM87.6219 8.65954C87.6219 8.59199 87.595 8.52721 87.547 8.47945C87.4991 8.43169 87.4341 8.40485 87.3663 8.40485H85.8297C85.7619 8.40485 85.6969 8.43169 85.649 8.47945C85.6011 8.52721 85.5741 8.59199 85.5741 8.65954V19.6053C85.5741 19.6728 85.6011 19.7376 85.649 19.7853C85.6969 19.8331 85.7619 19.86 85.8297 19.86H87.3622C87.43 19.86 87.4951 19.8331 87.543 19.7853C87.5909 19.7376 87.6179 19.6728 87.6179 19.6053V8.65447" fill="#2151A1"/>
<path d="M86.5967 7.25569C87.3727 7.25569 88.0019 6.62875 88.0019 5.85539C88.0019 5.08202 87.3727 4.45508 86.5967 4.45508C85.8206 4.45508 85.1914 5.08202 85.1914 5.85539C85.1914 6.62875 85.8206 7.25569 86.5967 7.25569Z" fill="#2151A1"/>
<path d="M66.1601 9.92668C66.6871 9.93192 67.2076 10.0422 67.6911 10.251C68.1747 10.4597 68.6115 10.7628 68.9757 11.1424C69.3399 11.522 69.6241 11.9703 69.8118 12.461C69.9995 12.9517 70.0866 13.4749 70.0683 13.9998C70.0928 14.5202 70.0118 15.0404 69.8304 15.5291C69.6489 16.0179 69.3706 16.4653 69.0121 16.8446C68.6535 17.224 68.222 17.5274 67.7433 17.7372C67.2646 17.9469 66.7483 18.0585 66.2254 18.0654C65.7025 18.0721 65.1836 17.974 64.6995 17.7768C64.2154 17.5797 63.7762 17.2874 63.4077 16.9176C63.0394 16.5476 62.7495 16.1077 62.5553 15.6239C62.3611 15.14 62.2665 14.6222 62.2773 14.1012C62.2527 13.0371 62.6485 12.0059 63.3795 11.2298C64.1106 10.4538 65.1182 9.99486 66.1856 9.95204L66.1601 9.92668ZM66.4411 20.083C67.2138 20.0866 67.9795 19.9378 68.6942 19.645C69.4088 19.3523 70.0583 18.9214 70.605 18.3772C71.7352 17.2201 72.3598 15.6641 72.3422 14.0495C72.3689 12.5674 71.8491 11.1271 70.8812 10.0015C69.9133 8.87593 68.5646 8.14331 67.0909 7.94253C65.6171 7.74175 64.1205 8.08677 62.885 8.91219C61.6494 9.7376 60.7607 10.986 60.3873 12.4209C60.2063 13.3428 60.1208 14.2809 60.1318 15.2204V23.8242C60.1318 23.8917 60.1587 23.9566 60.2067 24.0043C60.2546 24.0521 60.3196 24.0789 60.3873 24.0789H61.9199C61.9877 24.0789 62.0526 24.0521 62.1006 24.0043C62.1486 23.9566 62.1755 23.8917 62.1755 23.8242V18.4025C63.2214 19.4147 64.602 20.0121 66.0582 20.083" fill="#2151A1"/>
</g>
<defs>
<clipPath id="clip0_543_38961">
<rect width="88" height="28" fill="white"/>
</clipPath>
</defs>
</svg>