<svg id="Layer_2" data-name="Layer 2" xmlns="http://www.w3.org/2000/svg" xmlns:xlink="http://www.w3.org/1999/xlink" viewBox="0 0 689.81 537.27">
  <defs>
    <style>
      .hero-cls-1, .hero-cls-2, .hero-cls-3, .hero-cls-4, .hero-cls-5 {
        fill: none;
      }

      .hero-cls-2, .hero-cls-3, .hero-cls-4, .hero-cls-5 {
        stroke-linecap: round;
        stroke-linejoin: round;
      }

      .hero-cls-2, .hero-cls-4 {
        stroke: #000;
      }

      .hero-cls-6 {
        fill: url(#linear-gradient);
      }

      .hero-cls-7 {
        clip-path: url(#clippath);
      }

      .hero-cls-8 {
        fill: #004ab5;
      }

      .hero-cls-9 {
        fill: #eaeaea;
      }

      .hero-cls-10 {
        fill: #eed9ff;
      }

      .hero-cls-11 {
        fill: #fff;
      }

      .hero-cls-12 {
        fill: #ffc500;
      }

      .hero-cls-13 {
        fill: #ffa878;
      }

      .hero-cls-14 {
        fill: #ff2b50;
      }

      .hero-cls-15 {
        fill: #ff8c19;
      }

      .hero-cls-16 {
        fill: #ba3dfe;
      }

      .hero-cls-17 {
        fill: #c297ff;
      }

      .hero-cls-18 {
        fill: #bcbcbc;
      }

      .hero-cls-19 {
        fill: #cc7dff;
      }

      .hero-cls-20 {
        fill: #de1250;
      }

      .hero-cls-21, .hero-cls-22 {
        fill: #1e1e1e;
      }

      .hero-cls-23 {
        fill: #6f14c6;
      }

      .hero-cls-24 {
        fill: #a343ff;
      }

      .hero-cls-25 {
        fill: #9b40f2;
      }

      .hero-cls-26 {
        fill: #555560;
      }

      .hero-cls-27 {
        fill: #4b208e;
      }

      .hero-cls-28 {
        fill: #843c31;
      }

      .hero-cls-29 {
        fill: #606060;
      }

      .hero-cls-30 {
        clip-path: url(#clippath-1);
      }

      .hero-cls-31 {
        clip-path: url(#clippath-2);
      }

      .hero-cls-3 {
        stroke-width: 4px;
      }

      .hero-cls-3, .hero-cls-5 {
        stroke: #fff;
      }

      .hero-cls-22 {
        opacity: .2;
      }

      .hero-cls-32 {
        fill: url(#linear-gradient-8);
      }

      .hero-cls-33 {
        fill: url(#linear-gradient-9);
      }

      .hero-cls-34 {
        fill: url(#linear-gradient-3);
      }

      .hero-cls-35 {
        fill: url(#linear-gradient-4);
      }

      .hero-cls-36 {
        fill: url(#linear-gradient-2);
      }

      .hero-cls-37 {
        fill: url(#linear-gradient-6);
      }

      .hero-cls-38 {
        fill: url(#linear-gradient-7);
      }

      .hero-cls-39 {
        fill: url(#linear-gradient-5);
      }

      .hero-cls-40 {
        fill: url(#linear-gradient-13);
      }

      .hero-cls-41 {
        fill: url(#linear-gradient-12);
      }

      .hero-cls-42 {
        fill: url(#linear-gradient-10);
      }

      .hero-cls-43 {
        fill: url(#linear-gradient-11);
      }

      .hero-cls-4, .hero-cls-5 {
        stroke-width: 1.5px;
      }
    </style>
    <linearGradient id="linear-gradient" x1="-1246.18" y1="0" x2="-1246.18" y2="118.58" gradientTransform="translate(-646.02) rotate(-180) scale(1 -1)" gradientUnits="userSpaceOnUse">
      <stop offset="0" stop-color="#e0bcf7"/>
      <stop offset=".13" stop-color="#e0bdf7" stop-opacity=".98"/>
      <stop offset=".27" stop-color="#e2c2f7" stop-opacity=".93"/>
      <stop offset=".42" stop-color="#e6c9f8" stop-opacity=".84"/>
      <stop offset=".58" stop-color="#ebd4f9" stop-opacity=".71"/>
      <stop offset=".73" stop-color="#f1e1fb" stop-opacity=".55"/>
      <stop offset=".89" stop-color="#f9f2fd" stop-opacity=".35"/>
      <stop offset="1" stop-color="#fff" stop-opacity=".2"/>
    </linearGradient>
    <linearGradient id="linear-gradient-2" x1="183.7" y1="265.23" x2="310.34" y2="265.23" gradientUnits="userSpaceOnUse">
      <stop offset="0" stop-color="#ff1d4b"/>
      <stop offset=".2" stop-color="#f52164"/>
      <stop offset=".5" stop-color="#db2da4"/>
      <stop offset="1" stop-color="#b83dfd"/>
    </linearGradient>
    <linearGradient id="linear-gradient-3" x1="486.26" y1="265.03" x2="355.02" y2="265.03" gradientUnits="userSpaceOnUse">
      <stop offset="0" stop-color="#ffc500"/>
      <stop offset=".5" stop-color="#db2da4"/>
      <stop offset="1" stop-color="#b83dfd"/>
    </linearGradient>
    <clipPath id="clippath">
      <path class="hero-cls-1" d="M504.07,231.55h47.86c4.26,0,7.73,3.46,7.73,7.73v9.29c0,30.68-24.91,55.58-55.58,55.58h0c-4.26,0-7.73-3.46-7.73-7.73v-57.14c0-4.26,3.46-7.73,7.73-7.73Z"/>
    </clipPath>
    <linearGradient id="linear-gradient-4" x1="521.81" y1="266.34" x2="521.81" y2="305.25" xlink:href="#linear-gradient-2"/>
    <linearGradient id="linear-gradient-5" x1="-5261.61" y1="218.84" x2="-5261.61" y2="466.68" gradientTransform="translate(-4841.82) rotate(-180) scale(1 -1)" gradientUnits="userSpaceOnUse">
      <stop offset=".1" stop-color="#ff1d4b"/>
      <stop offset=".19" stop-color="#ff403b"/>
      <stop offset=".33" stop-color="#ff6f26"/>
      <stop offset=".46" stop-color="#ff9515"/>
      <stop offset=".59" stop-color="#ffaf09"/>
      <stop offset=".7" stop-color="#ffc002"/>
      <stop offset=".78" stop-color="#ffc600"/>
    </linearGradient>
    <clipPath id="clippath-1">
      <rect class="hero-cls-1" x="548.6" y="332.56" width="34.88" height="40" rx="11.37" ry="11.37"/>
    </clipPath>
    <clipPath id="clippath-2">
      <rect class="hero-cls-1" x="548.79" y="401.76" width="34.88" height="40" rx="11.37" ry="11.37"/>
    </clipPath>
    <linearGradient id="linear-gradient-6" x1="2925.64" y1="1592.89" x2="2947.17" y2="1592.89" gradientTransform="translate(-2744.64 1118.61) rotate(-46.42)" xlink:href="#linear-gradient-2"/>
    <linearGradient id="linear-gradient-7" x1="2935.89" y1="1562.61" x2="2936.84" y2="1581.03" gradientTransform="translate(-2517.89 -1496.75)" xlink:href="#linear-gradient-2"/>
    <linearGradient id="linear-gradient-8" x1="112.36" y1="430.29" x2="143.73" y2="430.29" gradientUnits="userSpaceOnUse">
      <stop offset="0" stop-color="#cdcdcd"/>
      <stop offset="1" stop-color="#3175bf"/>
    </linearGradient>
    <linearGradient id="linear-gradient-9" x1="83.4" y1="430.64" x2="114.24" y2="430.64" xlink:href="#linear-gradient-8"/>
    <linearGradient id="linear-gradient-10" x1="98.02" y1="424.26" x2="127.63" y2="424.26" xlink:href="#linear-gradient-8"/>
    <linearGradient id="linear-gradient-11" x1="26.74" y1="244.08" x2="98.04" y2="244.08" xlink:href="#linear-gradient-2"/>
    <linearGradient id="linear-gradient-12" x1="-265.7" y1="588.31" x2="-213.55" y2="588.31" gradientTransform="translate(546.36 590.46) rotate(-27.06) scale(1 -1)" gradientUnits="userSpaceOnUse">
      <stop offset="0" stop-color="#ff1d4b"/>
      <stop offset="1" stop-color="#ffc600"/>
    </linearGradient>
    <linearGradient id="linear-gradient-13" x1="-745.19" y1="69.26" x2="-745.19" y2="149.7" xlink:href="#linear-gradient"/>
  </defs>
  <g id="Layer_1-2" data-name="Layer 1">
    <g>
      <path class="hero-cls-6" d="M659.47,42.32c-.72,0-1.42,.03-2.13,.08,.18-1.49,.28-3.01,.28-4.55,0-20.91-16.95-37.86-37.86-37.86s-37.66,16.76-37.85,37.51c-4.07-2.76-8.97-4.38-14.26-4.38-12.18,0-22.36,8.58-24.83,20.02-2.2-.62-4.53-.96-6.93-.96-14.03,0-25.41,11.38-25.41,25.41,0,12.75,9.39,23.3,21.63,25.13v.28h127.35c16.76,0,30.35-13.59,30.35-30.35s-13.59-30.35-30.35-30.35Z"/>
      <g>
        <path class="hero-cls-22" d="M523.65,458.59s146.78-.05,141.61,11.49c-5.17,11.54-103.6,14.58-148.72,32.45-45.12,17.86-5.73,48.83-242.52,27.53,0,0-48.58-9.13,13.9-29.61,62.48-20.47-151.98-20.33-142.54-9.24,9.44,11.09-98.27,19.02-81.25,9.24,17.03-9.78-5.35-14.23-18.71-13.3-13.37,.93-105.57-6.65,18.71-17.07,124.28-10.42,459.51-11.49,459.51-11.49Z"/>
        <rect class="hero-cls-26" x="45.44" y="435.86" width="564.15" height="39.54" transform="translate(655.03 911.26) rotate(180)"/>
        <polygon class="hero-cls-26" points="45.44 326.09 56.12 311.11 76.62 311.11 76.62 453.46 45.44 453.46 45.44 326.09"/>
        <circle class="hero-cls-9" cx="61.03" cy="332.29" r="9.94" transform="translate(-213.22 134.99) rotate(-43.86)"/>
        <path class="hero-cls-8" d="M51.18,329.83l17.76,8.82c1.08,.54,2.39,.1,2.92-.98h0c.54-1.08,.1-2.39-.98-2.92l-17.76-8.82c-1.08-.54-2.39-.1-2.92,.98h0c-.54,1.08-.1,2.39,.98,2.92Z"/>
        <circle class="hero-cls-9" cx="61.03" cy="364.44" r="9.94" transform="translate(-83.48 24.35) rotate(-13.51)"/>
        <path class="hero-cls-8" d="M53.97,371.73l16.53-10.96c1-.66,1.28-2.02,.61-3.02h0c-.66-1-2.02-1.28-3.02-.61l-16.53,10.96c-1,.66-1.28,2.02-.61,3.02h0c.66,1,2.02,1.28,3.02,.61Z"/>
        <rect class="hero-cls-12" x="51.09" y="388" width="19.88" height="3.06" transform="translate(122.06 779.05) rotate(180)"/>
        <rect class="hero-cls-12" x="51.09" y="394.75" width="19.88" height="3.06" transform="translate(122.06 792.56) rotate(180)"/>
        <rect class="hero-cls-12" x="51.09" y="401.51" width="19.88" height="3.06" transform="translate(122.06 806.07) rotate(180)"/>
        <rect class="hero-cls-21" x="75.88" y="88.15" width="507.84" height="356.78" rx="12.15" ry="12.15"/>
        <g>
          <g>
            <circle class="hero-cls-14" cx="161.46" cy="201.59" r="23.15"/>
            <circle class="hero-cls-14" cx="161.46" cy="265.03" r="23.15" transform="translate(-126.56 380.58) rotate(-80.51)"/>
            <circle class="hero-cls-14" cx="161.46" cy="328.47" r="23.15"/>
          </g>
          <g>
            <circle class="hero-cls-16" cx="332.53" cy="155.97" r="23.15" transform="translate(128.33 461.26) rotate(-81.35)"/>
            <circle class="hero-cls-16" cx="332.53" cy="210.5" r="23.15"/>
            <circle class="hero-cls-16" cx="332.53" cy="265.03" r="23.15" transform="translate(20.51 553.93) rotate(-81.35)"/>
            <circle class="hero-cls-16" cx="332.53" cy="319.56" r="23.15"/>
            <circle class="hero-cls-16" cx="332.53" cy="374.09" r="23.15" transform="translate(-87.31 646.59) rotate(-81.35)"/>
          </g>
          <path class="hero-cls-36" d="M310.04,374.73c.31-.32,.35-.81,.08-1.18l-36.71-50.76,35.3-2.52,.29,.13c.41,.18,.88,.04,1.13-.33h.02s-.02,0-.02,0c.24-.37,.19-.87-.14-1.17l-36.75-34.75,36.42-18.52c.22-.11,.36-.34,.36-.59s-.14-.48-.36-.59l-56.41-28.69,56.38-24.64c.34-.15,.49-.54,.34-.87-.15-.34-.54-.49-.87-.34l-55.44,24.23,56.24-77.77s0-.02,.02-.03c.03-.05,.05-.1,.07-.15,0-.03,.02-.05,.03-.08,.01-.06,.01-.12,0-.18,0-.02,0-.04,0-.06-.01-.08-.04-.15-.08-.23,0,0,0,0,0,0,0-.01-.02-.02-.03-.03-.04-.06-.09-.11-.14-.15,0,0,0,0-.01-.01-.02-.01-.04-.01-.06-.03-.05-.03-.1-.05-.15-.07-.03,0-.06-.01-.09-.02-.05,0-.09,0-.14,0-.03,0-.07,0-.1,.02-.02,0-.05,0-.07,.01l-124.17,45.4c-.32-.14-.69-.09-.97,.15-.36,.31-.42,.84-.14,1.23l27.77,38.4-26.98,23.59c-.31-.02-.62,.13-.8,.41l-.13-.06,.11,.1c-.23,.38-.16,.87,.18,1.16l27.67,24.19-27.61,38.17s0,.02-.02,.03c-.02,.03-.03,.05-.04,.08-.01,.03-.03,.06-.04,.09,0,.03-.01,.06-.02,.09,0,.03,0,.07,0,.1,0,.01,0,.02,0,.04,0,.02,0,.03,.01,.05,0,.03,.01,.07,.02,.1,0,.03,.02,.06,.03,.09,0,.02,.01,.03,.02,.05,0,.01,.02,.02,.03,.04,.02,.02,.03,.04,.05,.07,.02,.03,.05,.05,.07,.07,.02,.02,.04,.03,.06,.05,.03,.02,.06,.04,.1,.05,.02,0,.03,.02,.04,.02l123.98,45.33,.41,.36c.33,.28,.84,.29,1.18,.02l.39,.34-.31-.42Zm-6.14-6.65l-50.19-43.88,17.55-1.25,32.64,45.13Zm-71.97-62.92l19.35-9.84,19.07,26.36-18.04,1.29-20.37-17.81Zm17.79,17.99l-61.87,4.42,42.31-21.52,19.56,17.1Zm-19.11-97.44l19.56,9.94-19.26,8.42-10.23-9.68,9.94-8.69Zm-10.91,7.77l-30.48-28.82,40.11,20.4-9.63,8.42Zm11.99-8.72l73.74-64.46-53.91,74.54-19.83-10.08Zm18.07,12.52l-10.57,14.62-7.23-6.84,17.81-7.78Zm-20.68,7.59l-9.12,3.99-6.13-8.48,5.46-4.77,9.79,9.26Zm1.05,.99l7.97,7.54-7.43,10.27-9.92-13.71,9.37-4.1Zm22.03,47.52l-20.67-28.58,7.58-10.48,31.44,29.73-18.35,9.33Zm-22.62-28.14l-10.12,13.99-32.82-14.34,32.42-14.17,10.51,14.53Zm.82,1.13l18.65,25.78-28.34-12.39,9.69-13.4Zm19.52,28.17l-19.02,9.67-17.07-14.93,5.78-7.99,30.31,13.25Zm22.63,26.98l-18.07-24.98,51.67,22.58-33.6,2.4Zm32.42-4.92l-51.36-22.45,17.96-9.13,33.4,31.58Zm2.99-51.58l-35.68,18.14-32.09-30.34,11.77-16.28,56,28.48Zm-1.66-107.21l-75.85,66.31-44.12-22.44,119.97-43.87Zm-119.16,46.92l-1.31-1.81h.03s1.6,1.53,1.6,1.53l-.32,.28Zm4,4.24l27.2,25.72-5.27,4.61-21.94-30.33Zm21.33,32.63l5.8,8.01-29.93,13.08,24.13-21.1Zm-22.72,26.65l28.6,12.5-5.54,7.66-23.06-20.16Zm39.38,36.86l-42.31,21.52,25.92-35.84,16.39,14.33Zm-41.32,23.8l63.36-4.53,54.46,47.61-117.83-43.09Z"/>
          <path class="hero-cls-34" d="M355.68,374.76c-.19,0-.39-.09-.52-.25-.21-.26-.2-.63,.03-.87l58.72-63.63-58.11,10.2c-.31,.06-.61-.12-.73-.41-.12-.29-.01-.63,.25-.8l58.79-39.03-58.58-14.3c-.3-.07-.51-.34-.51-.65s.21-.57,.51-.65l58.58-14.3-58.79-39.03c-.26-.17-.37-.51-.25-.8,.12-.29,.42-.46,.73-.41l58.11,10.2-58.72-63.63c-.22-.24-.24-.61-.03-.87,.21-.26,.57-.32,.86-.15l129.9,77.33s.06,.04,.08,.06c0,0,.02,.01,.02,.02h0s0,0,0,0h0s0,0,0,0c0,0,0,0,0,0,0,0,0,0,0,0h0s0,0,0,0c0,0,0,0,0,0,0,0,0,0,0,0,0,0,0,0,0,0,0,0,0,0,0,0s0,0,0,0c0,0,0,0,0,0,0,0,0,0,0,0,0,0,0,0,0,0,0,0,0,0,0,0,0,0,0,0,0,0,0,0,0,0,0,0,0,0,0,0,0,0,0,0,0,0,0,0,0,0,0,0,0,0,0,0,0,0,0,0,0,0,0,0,0,0h0s.02,.02,.02,.03c.07,.08,.11,.18,.14,.28,.01,.04,.01,.09,.02,.13h0s0,.08,0,.12c0,0,0,0,0,0h0c-.01,.1-.05,.19-.11,.28,0,0-.01,.02-.02,.03h0s0,0,0,0h0s0,0,0,0h0s0,0,0,0c0,0,0,0,0,0,0,0,0,0,0,0,0,0,0,0,0,0h0s-.02,.02-.03,.03l-28.85,31.26,28.85,31.26s.03,.03,.04,.04c0,0,0,0,0,0,0,0,0,0,0,0,0,0,0,0,0,0,0,0,0,0,0,0,0,0,.01,.01,.02,.02t0,0c.06,.08,.1,.18,.11,.28h0s0,0,0,0c0,.04,0,.08,0,.12h0s0,.09-.02,.13c-.02,.1-.07,.19-.13,.27-.03,.04-.07,.08-.11,.11-.02,.02-.05,.04-.08,.05l-129.9,77.33c-.11,.06-.22,.09-.34,.09Zm60.39-65.12l-56.8,61.55,122.88-73.15-66.08,11.6Zm-.21-29.23l-57.16,37.95,56.7-9.96,21.17-22.94-20.71-5.06Zm22.18,5.42l-20.49,22.2,64.81-11.38-44.32-10.82Zm1.03-1.12l43,10.5-32.67-21.69-10.33,11.19Zm11.24-12.18l31.05,20.62-25.04-27.14-6.01,6.52Zm-32.95,6.88l20.23,4.94,10.68-11.58-10.46-6.94-20.45,13.58Zm-58.88-14.38l57.13,13.95,21.01-13.95-21.01-13.95-57.13,13.95Zm80.54,0l10.17,6.75,6.23-6.75-6.23-6.75-10.17,6.75Zm-21.65-14.38l20.45,13.58,10.46-6.94-10.68-11.58-20.23,4.94Zm32.95,6.88l6.01,6.52,25.04-27.14-31.05,20.62Zm-11.24-12.18l10.33,11.19,32.67-21.69-43,10.5Zm-80.37-33.65l57.16,37.95,20.71-5.06-21.17-22.94-56.7-9.96Zm58.86,10.33l20.49,22.2,44.32-10.82-64.81-11.38Zm-1.48-1.61l66.08,11.6-122.88-73.15,56.8,61.55Z"/>
        </g>
        <g>
          <g>
            <path class="hero-cls-11" d="M128.88,124.8h-28.65c-1.51,0-2.73-1.22-2.73-2.73s1.22-2.73,2.73-2.73h28.65c1.51,0,2.73,1.22,2.73,2.73s-1.22,2.73-2.73,2.73Z"/>
            <path class="hero-cls-11" d="M171.58,124.8h-28.65c-1.51,0-2.73-1.22-2.73-2.73s1.22-2.73,2.73-2.73h28.65c1.51,0,2.73,1.22,2.73,2.73s-1.22,2.73-2.73,2.73Z"/>
            <path class="hero-cls-11" d="M116.16,139.34h-15.93c-1.51,0-2.73-1.22-2.73-2.73s1.22-2.73,2.73-2.73h15.93c1.51,0,2.73,1.22,2.73,2.73s-1.22,2.73-2.73,2.73Z"/>
            <path class="hero-cls-11" d="M181.36,139.34h-51.15c-1.51,0-2.73-1.22-2.73-2.73s1.22-2.73,2.73-2.73h51.15c1.51,0,2.73,1.22,2.73,2.73s-1.22,2.73-2.73,2.73Z"/>
            <path class="hero-cls-11" d="M142.67,154.78h-42.43c-1.51,0-2.73-1.22-2.73-2.73s1.22-2.73,2.73-2.73h42.43c1.51,0,2.73,1.22,2.73,2.73s-1.22,2.73-2.73,2.73Z"/>
          </g>
          <g>
            <rect class="hero-cls-12" x="523.65" y="117.82" width="7.14" height="36.96"/>
            <rect class="hero-cls-16" x="538.1" y="133.77" width="7.14" height="21.02"/>
            <rect class="hero-cls-14" x="552.55" y="124.36" width="7.14" height="30.42"/>
          </g>
        </g>
        <g>
          <rect class="hero-cls-12" x="502.07" y="224.31" width="154.43" height="86.04" rx="15.59" ry="15.59"/>
          <path class="hero-cls-12" d="M511.5,215.05h39.23v95.3h-68.37v-66.17c0-16.08,13.05-29.13,29.13-29.13Z"/>
          <path class="hero-cls-10" d="M504.07,231.55h47.86c4.26,0,7.73,3.46,7.73,7.73v9.29c0,30.68-24.91,55.58-55.58,55.58h0c-4.26,0-7.73-3.46-7.73-7.73v-57.14c0-4.26,3.46-7.73,7.73-7.73Z"/>
          <g class="hero-cls-7">
            <g>
              <path class="hero-cls-21" d="M523.11,243.69s-10.79-1.41-11.33,11.53c-.54,12.94-.13,17.69-3.69,23.86-3.55,6.17-5.09,8.71-4.02,12.87h46.05s.34-3.82-3.28-9.79c-3.62-5.97-4.83-14.08-4.89-23.39-.07-9.32-6.57-20.58-18.83-15.08Z"/>
              <path class="hero-cls-28" d="M516.37,256.16h1.91v8.04h0c-2.39,0-4.32-1.94-4.32-4.32v-1.31c0-1.33,1.08-2.41,2.41-2.41Z"/>
              <path class="hero-cls-28" d="M539.04,256.16h0v8.04h-1.91c-1.33,0-2.41-1.08-2.41-2.41v-1.31c0-2.39,1.94-4.32,4.32-4.32Z" transform="translate(1073.76 520.37) rotate(180)"/>
              <path class="hero-cls-35" d="M550.31,290.03c-2.46-2.81-5.62-4.97-9.19-6.24l-6.49-2.31v-2.63c0-1.46-1.19-2.65-2.65-2.65h-10.59c-1.46,0-2.65,1.19-2.65,2.65v2.3l-7.53,2.04c-5.18,1.4-9.6,4.79-12.3,9.43l-6.67,11.45h44.4l12.64-7.53c2.3-1.37,2.79-4.49,1.03-6.51Z"/>
              <path class="hero-cls-28" d="M531.69,277.43h0c-3.08,1.67-6.8,1.67-9.88,0h0v-6.13h9.88v6.13Z"/>
              <path class="hero-cls-21" d="M531.69,273.72h0c-3.17,1.46-6.71,1.46-9.88,0h0v-2.41h9.88v2.41Z"/>
              <path class="hero-cls-28" d="M535.45,254.08v10.66c0,4.94-4.01,8.95-8.95,8.95h0c-4.94,0-8.95-4.01-8.95-8.95v-11.63c0-3.35,2.72-6.07,6.07-6.07,0,0,2.33,7.29,11.83,7.04Z"/>
              <path class="hero-cls-2" d="M524.09,267.09s2.66,2.57,5.33,0"/>
            </g>
          </g>
          <line class="hero-cls-3" x1="577.27" y1="240.89" x2="639" y2="240.89"/>
          <line class="hero-cls-3" x1="577.27" y1="267.9" x2="639" y2="267.9"/>
          <line class="hero-cls-3" x1="577.27" y1="276.21" x2="639" y2="276.21"/>
          <line class="hero-cls-3" x1="577.27" y1="284.51" x2="611.99" y2="284.51"/>
          <line class="hero-cls-3" x1="577.27" y1="248.86" x2="615.34" y2="248.86"/>
        </g>
        <g>
          <path class="hero-cls-13" d="M483.95,285.22s-.09-8.28-1.38-9.75c-1.29-1.47-1.61,2.44-1.98,5.2-.37,2.76-5.48,3.19-4.67,8.91,0,0,4.54,.89,8.03-4.35Z"/>
          <path class="hero-cls-14" d="M466.55,301.35l25.1-31.35c1.15-1.44,.58-3.59-1.15-4.25l-21.48-8.31c-1.08-.42-2.3-.11-3.06,.77l-24.64,28.75c-1.15,1.34-.75,3.39,.82,4.2l21.02,10.9c1.16,.6,2.57,.3,3.39-.72Z"/>
          <path class="hero-cls-13" d="M427.33,499.03l.97,11.24s-1.93,8-5.59,8-7.52-7.17-7.52-7.17v-9.79s12.14-2.28,12.14-2.28Z"/>
          <path class="hero-cls-14" d="M422.02,514.82s2.21,.62,4-2.76c1.79-3.38,2.28-4.14,2.28-4.14,0,0,2.99,.3,3.61,4.99,0,0,1.38,3.93,12.69,5.36,11.8,1.49,14.46,2.83,14.74,9.04h-49.59s.14-5.93,1.66-10.07c1.52-4.14,1.1-8.41,3.79-7.72,0,0,2,4.9,6.83,5.31Z"/>
          <path class="hero-cls-13" d="M475.95,304.25s9.17-10.28,11.17-13.59,1.17-16.48,1.17-16.48l-18.69,23.24,6.35,6.83Z"/>
          <path class="hero-cls-13" d="M423.18,222.63s2.52,2.39,5.59,15.04c2.5,10.3,2.9,15.59-7.17,14.83l-2.55,9.72-14.07-3.86,2.07-10.76s-5.31-11.45-.76-16.69c4.55-5.24,16.9-8.28,16.9-8.28Z"/>
          <path class="hero-cls-29" d="M430.75,342.42s6.07,56.46,4.05,88.83c-1.81,28.94-4.04,59.86-4.49,66.09-.11,1.54-.54,3.05-1.33,4.38-1.16,1.95-3.35,4.06-7.38,4.13-7.52,.14-9.17-4.41-9.66-6.21-.48-1.79-.69-3.24-2.21-14.07-1.52-10.83-1.93-31.52,1.93-51.38l-5.66-46.62s-10.21,39.73-13.93,50.21c-3.29,9.27-24.07,39.97-28.83,46.94-1.88,2.76-5.32,4.06-8.53,3.15-.87-.25-1.82-.63-2.85-1.19-2.61-1.42-3.98-3.16-4.66-4.77-.86-2.04-.7-4.37,.28-6.35l24.58-49.51,7.72-55.18s-6.07-11.31,1.79-29.8l49.15,1.33Z"/>
          <path class="hero-cls-39" d="M422.33,262.92s2.87-6.59-2.53-8.26c-6.44-2-11.78-3.31-15.29-2.59-2.82,.58-3.09,6.85-3.09,6.85,0,0-14.25,1.84-19.86,9.2-5.61,7.36-19.31,35.15-20.32,43.23s2.12,12.13,18.76,15.99c0,0-6.33,14.05,.1,17.69s39.44,7.78,50.39,1.25c10.94-6.53,.28-14.53,.55-20.42,.28-5.89,1.01-8.46,1.01-8.46l3.73,12.97c2.36,8.2,12.79,10.64,18.54,4.34,7.51-8.22,15.99-17.61,18.95-21.29,5.72-7.1,7.17-11.79,2.41-16.14s-8.14-3.17-13.04,1.24c-4.9,4.41-10.35,9.31-10.35,9.31l-9.46-28.37c-1.36-4.08-3.97-7.63-7.49-10.09-3.46-2.43-8.16-5.19-13.02-6.45Z"/>
          <circle class="hero-cls-15" cx="393.07" cy="224.86" r="10.73"/>
          <path class="hero-cls-15" d="M394.14,226.29s5.52-6.69,14.28-9.1c8.76-2.41,15.03-5.64,17.31,.41,1.7,4.51-4,8.48-7.79,10.28,0,0,.07,2.69-.94,3.98,0,0,.51,2.8-1.1,3.31,0,0-3.26,3.95-2.48,7.63,0,0-.64,6.9-7.13,6.07-6.48-.83-14.35-12.87-12.14-22.58Z"/>
          <ellipse class="hero-cls-13" cx="412.24" cy="237.91" rx="3.48" ry="4.52"/>
          <path class="hero-cls-13" d="M358.02,487.99l-3.8,6.35-2.9,7.45s-3.79,2.21-6.35-.97c-2.55-3.17-3.72-11.24-3.59-11.52,.11-.21,4.33-5.41,6.25-7.76,.7-.85,1.69-1.41,2.78-1.56,2.21-.29,5.85-.06,7.81,3.94,.63,1.29,.53,2.83-.21,4.06Z"/>
          <path class="hero-cls-14" d="M348.5,500.27s1.07-7.83-3.03-11.73c-5.33-5.06-15.82,5.24-15.24,7.04,.09,.27,16.49,29.14,29.14,29.14,12.65,0,14.31,0,14.31,0,0,0,1.24-6.52-4.35-8.25-5.59-1.72-14.35-11.66-13.73-15.45,.62-3.79-1.06-7.23-1.06-7.23,0,0-2.53,5.92-6.05,6.47Z"/>
          <rect class="hero-cls-21" x="408.78" y="527.3" width="51.87" height="2.76" rx="1.38" ry="1.38" transform="translate(869.42 1057.37) rotate(180)"/>
          <path class="hero-cls-21" d="M373.67,524.72h-10.41s-9.62,0-13.24-6.8c-2.55-4.79-9.47-21.68-18.22-25.12,0,0-2.81,.15-3.99,3.87,0,0,2.2,9,8.62,12.97l1.66,.07s-.14,2,1.24,4.14c1.38,2.14,7.32,12.83,19.32,12.76,8.5-.05,12.81-.03,14.6-.01,1.04,0,1.4-1.42,.46-1.86-.01,0-.03-.01-.04-.02Z"/>
          <path class="hero-cls-2" d="M429.41,242.43s-2.74,.34-3.71-1.32"/>
          <line class="hero-cls-4" x1="452.3" y1="307.84" x2="455.81" y2="319.63"/>
          <line class="hero-cls-4" x1="432.04" y1="317.4" x2="426.04" y2="296.94"/>
          <path class="hero-cls-4" d="M379.99,327.33s2.21-2.02,3.13-7.36c.92-5.33-5.27-18.07-3.77-34.49"/>
          <path class="hero-cls-4" d="M377.78,314.09c.09-.28,3.46-6.13,3.46-6.13"/>
          <path class="hero-cls-4" d="M406.02,387.57l-1.75-12.32s-8.83,.64-16.65-2.76"/>
          <line class="hero-cls-5" x1="483.45" y1="270.04" x2="468.16" y2="263.7"/>
          <line class="hero-cls-5" x1="481.34" y1="272.91" x2="466.05" y2="266.56"/>
          <line class="hero-cls-5" x1="478.85" y1="276.39" x2="466.87" y2="271.21"/>
          <line class="hero-cls-5" x1="467.34" y1="289.74" x2="452.81" y2="282.39"/>
          <polyline class="hero-cls-5" points="471.4 284.11 469.13 279.82 462.23 280.87 460.07 272.91"/>
        </g>
        <g>
          <rect class="hero-cls-16" x="540.15" y="393.08" width="116.48" height="60.38" rx="15.59" ry="15.59"/>
          <rect class="hero-cls-16" x="539.99" y="323.64" width="116.48" height="60.1" rx="15.59" ry="15.59"/>
          <rect class="hero-cls-10" x="548.6" y="332.56" width="34.88" height="40" rx="11.37" ry="11.37"/>
          <rect class="hero-cls-10" x="548.79" y="401.76" width="34.88" height="40" rx="11.37" ry="11.37"/>
          <g class="hero-cls-30">
            <g>
              <path class="hero-cls-24" d="M587.34,372.57c-.16-2.83-1.14-9.68-3.08-11.71-2.28-2.38-9.7-3.69-9.7-3.69,0,0,.11-2.9-5.38-1.89-5.49,1.02-4.1,3.61-4.1,3.61,0,0-4.03,1.03-6.1,3.1-1.8,1.8-3.92,10.57-3.92,10.57h32.27Z"/>
              <path class="hero-cls-23" d="M577.75,344.62c0-.79-.42-1.47-1.05-1.84,.09-.24,.15-.5,.15-.77,0-1.18-.96-2.14-2.14-2.14,0,0-.01,0-.02,0-.13-1.06-1.03-1.88-2.13-1.88-.5,0-.96,.17-1.32,.46-.36-.69-1.07-1.16-1.9-1.16-.68,0-1.29,.32-1.68,.82-.35-.24-.77-.38-1.22-.38-1.03,0-1.9,.73-2.1,1.71-.01,0-.03,0-.04,0-1.18,0-2.14,.96-2.14,2.14,0,.47,.15,.9,.41,1.25-.43,.39-.71,.96-.71,1.59,0,.85,.49,1.57,1.2,1.92,.82,4.07,2.66,7.49,6.27,7.74,.68,.05,1.34-.02,1.98-.19,.3,.15,.63,.24,.99,.24,1.17,0,2.11-.93,2.14-2.09,.02-.02,.04-.04,.06-.06,1.16-.03,2.09-.98,2.09-2.14,0-.19-.03-.37-.07-.54,.6-.38,1-1.05,1-1.81,0-.48-.16-.93-.43-1.29,.43-.39,.7-.95,.7-1.58Z"/>
              <path class="hero-cls-19" d="M572.43,346.62s-.96-.33-.64-1.96c0,0-.21-3.64-4.39-3.98s-4.37,2.49-4.61,5.95-.84,7.66,3.32,8.1l.66,3.83s3.64,.53,5.68-1.93l-.9-4.94s.96-1.12,1.2-2.35-.33-2.72-.33-2.72Z"/>
              <path class="hero-cls-19" d="M575.59,348.06c-.08,1.18-1.51,2.05-2.42,1.98s-.96-1.03-.88-2.21,.89-2.09,1.8-2.02,1.58,1.07,1.5,2.25Z"/>
              <path class="hero-cls-2" d="M564.52,351.05s1.04,.97,2.66-.06"/>
              <path class="hero-cls-21" d="M566.12,354.73s1.7,.09,3.53-1.33c0,0,.41,2.61-3.11,3.78l-.42-2.44Z"/>
            </g>
          </g>
          <g class="hero-cls-31">
            <g>
              <path class="hero-cls-27" d="M566.38,418.1s-5.99-1.77-5.08-5.76c.91-3.99,5.46-4.7,8.95-1.77,3.49,2.93,5.97,1.77,7.38,5,1.3,2.97-.66,6.07-.66,6.07,0,0,2.85,2.65,6.03,5.94,3.18,3.29,3.13,10.28-.71,11.19s-20.8-.8-20.34-7.27c.45-6.47,4.42-13.4,4.42-13.4Z"/>
              <path class="hero-cls-17" d="M569.02,427.58c3.62,.09,6.69,.99,9.34,2.14,5.28,2.3,6.23,3.41,6.95,12.04h-31.16s2.88-7.56,5.24-10.52c2.36-2.96,9.63-3.66,9.63-3.66Z"/>
              <path class="hero-cls-25" d="M574.05,417.41c-.62,0-1.15,.51-1.37,1.23-.93-.23-.56-1.83-.56-1.83-3.82-1.19-5.22-5.36-5.22-5.36-5.39,1.58-4.55,5.95-3.99,10.64,.56,4.69,3.47,4.17,3.47,4.17v2.81c0,.26,.16,.5,.4,.6l.1,.04c1.64,.66,3.5,.53,5.03-.35,.22-.12,.34-.36,.32-.61l-.46-5.43c.63-.91,1.27-1.96,1.27-1.96h0c.12,.09,.26,.14,.44,.14,.81,0,2.05-1.05,2.05-2.14s-.66-1.96-1.47-1.96Z"/>
              <path class="hero-cls-21" d="M566.38,426.27s1.71-.04,3.36-1.42c0,0-.67,2.96-3.36,3.26v-1.84Z"/>
              <path class="hero-cls-2" d="M564.86,422.6s.92,1,2.8-.31"/>
              <circle class="hero-cls-27" cx="577.32" cy="412.73" r="3.26"/>
              <circle class="hero-cls-2" cx="563.56" cy="418.3" r="1.9"/>
              <circle class="hero-cls-2" cx="568.71" cy="418.3" r="1.9"/>
              <line class="hero-cls-2" x1="565.46" y1="418.3" x2="566.82" y2="418.3"/>
            </g>
          </g>
          <line class="hero-cls-3" x1="596.44" y1="335.44" x2="643.01" y2="335.44"/>
          <line class="hero-cls-3" x1="596.44" y1="355.82" x2="643.01" y2="355.82"/>
          <line class="hero-cls-3" x1="596.44" y1="362.09" x2="643.01" y2="362.09"/>
          <line class="hero-cls-3" x1="596.44" y1="368.34" x2="622.63" y2="368.34"/>
          <line class="hero-cls-3" x1="596.44" y1="341.46" x2="625.16" y2="341.46"/>
          <line class="hero-cls-3" x1="596.87" y1="404.32" x2="643.43" y2="404.32"/>
          <line class="hero-cls-3" x1="596.87" y1="424.7" x2="643.43" y2="424.7"/>
          <line class="hero-cls-3" x1="596.87" y1="430.96" x2="643.43" y2="430.96"/>
          <line class="hero-cls-3" x1="596.87" y1="437.22" x2="623.06" y2="437.22"/>
          <line class="hero-cls-3" x1="596.87" y1="410.34" x2="625.59" y2="410.34"/>
        </g>
        <path class="hero-cls-37" d="M448.71,104.02c-4.1,4.31-8.81,6.48-10.52,4.86l-27.16-25.85,14.85-15.58,27.16,25.85c1.72,1.61-.22,6.42-4.32,10.73Z"/>
        <ellipse class="hero-cls-38" cx="418.48" cy="75.23" rx="10.77" ry="4.28" transform="translate(75.49 326.51) rotate(-46.42)"/>
        <g>
          <path class="hero-cls-32" d="M119.29,453.05c-3.12-3.98-5.76-8.49-6.65-13.47s.22-10.49,3.74-14.13c3.45-3.56,8.71-4.92,12.13-8.51,1.98-2.07,3.22-4.75,5.2-6.83,1.98-2.07,5.22-3.45,7.7-2.01,2.6,1.51,2.86,5.33,1.58,8.06-1.28,2.72-3.64,4.75-5.51,7.11-5.41,6.82-6.41,16.84-2.45,24.59l-15.74,5.18Z"/>
          <path class="hero-cls-18" d="M125.08,449c-.14,0-.29-.06-.38-.18-3.11-3.8-4.14-9.37-2.62-14.21,1.54-4.9,5.3-8.7,8.62-12.05,.19-.2,.51-.2,.7,0,.2,.19,.2,.51,0,.7-3.24,3.27-6.91,6.98-8.37,11.65-1.42,4.52-.46,9.73,2.44,13.28,.17,.21,.14,.53-.07,.7-.09,.08-.2,.11-.32,.11Z"/>
          <path class="hero-cls-33" d="M103,456.47c-8.31-2.79-14.31-11.37-14.07-20.14,.14-4.94,2.01-10.05,.24-14.66-.94-2.46-2.81-4.42-4.19-6.66-1.37-2.24-2.23-5.15-.97-7.46,1.27-2.32,4.36-3.17,6.92-2.52,2.56,.65,4.66,2.48,6.4,4.47,4.51,5.15,7.32,11.78,7.9,18.6,.37,4.43-.16,9.02,1.25,13.24,1.42,4.26,4.64,7.63,7.76,10.85l-11.25,4.28Z"/>
          <path class="hero-cls-18" d="M105.52,453.56c-.07,0-.14-.01-.2-.04-5.93-2.68-9.78-9.32-9.15-15.8,.12-1.24,.39-2.46,.65-3.65,.25-1.14,.51-2.31,.63-3.48,.27-2.69-.4-4.97-1.83-6.26-.21-.18-.22-.5-.04-.7,.18-.21,.5-.22,.7-.04,1.68,1.5,2.47,4.08,2.16,7.1-.12,1.22-.39,2.42-.65,3.59-.26,1.16-.52,2.35-.63,3.53-.59,6.07,3.01,12.29,8.57,14.8,.25,.11,.36,.41,.25,.66-.08,.18-.26,.29-.45,.29Z"/>
          <path class="hero-cls-42" d="M103.16,451.98c-3.3-.52-5.31-4.22-5.13-7.55,.18-3.33,1.98-6.34,3.75-9.17,1.77-2.83,3.62-5.78,3.94-9.1,.62-6.46-4.64-12.3-4.38-18.78,.24-5.94,5.02-10.66,9.89-14.07,1.98-1.39,4.1-2.7,6.47-3.19,2.37-.49,5.07-.02,6.74,1.73,2.66,2.79,1.73,7.38,.04,10.86-1.69,3.47-4.01,6.98-3.62,10.81,.35,3.4,2.76,6.17,4.37,9.19,2.6,4.87,3.11,10.81,1.4,16.05-1.1,3.37-3.05,6.39-4.6,9.58-1.54,3.19-2.7,6.77-2.05,10.26l-16.82-6.61Z"/>
          <path class="hero-cls-18" d="M112.87,451.92c-.14,0-.27-.06-.37-.17-2.63-2.96-3.48-7.59-2.47-13.38,.22-1.28,.51-2.57,.79-3.82,.69-3.11,1.41-6.33,1.17-9.5-.15-1.94-.65-3.89-1.15-5.77-.29-1.11-.59-2.26-.82-3.42-.78-3.97-.39-7.17,1.18-9.52,.15-.23,.46-.29,.69-.14,.23,.15,.29,.46,.14,.69-1.42,2.13-1.77,5.08-1.04,8.78,.22,1.12,.52,2.26,.81,3.36,.5,1.92,1.02,3.91,1.18,5.94,.25,3.32-.48,6.61-1.19,9.79-.28,1.24-.56,2.52-.78,3.78-.67,3.82-.83,9.1,2.23,12.54,.18,.21,.16,.52-.04,.7-.1,.08-.21,.13-.33,.13Z"/>
          <polygon class="hero-cls-9" points="136.05 446.57 89.02 446.57 94.5 493.6 128.38 493.6 136.05 446.57"/>
        </g>
        <g>
          <rect class="hero-cls-43" x="26.74" y="213.82" width="71.3" height="60.53" rx="7.11" ry="7.11"/>
          <g>
            <path class="hero-cls-11" d="M68.23,244.52h-4.09c-.31-1.31-.82-2.54-1.51-3.65l2.89-2.89c.15-.15,.15-.39,0-.54l-3.49-3.49c-.15-.15-.39-.15-.54,0l-2.89,2.89c-1.11-.69-2.34-1.2-3.65-1.51v-4.09c0-.21-.17-.38-.38-.38h-4.94c-.21,0-.38,.17-.38,.38v4.09c-1.31,.31-2.54,.82-3.65,1.51l-2.89-2.89c-.15-.15-.39-.15-.54,0l-3.49,3.49c-.15,.15-.15,.39,0,.54l2.89,2.89c-.69,1.11-1.2,2.34-1.51,3.65h-4.09c-.21,0-.38,.17-.38,.38v4.94c0,.21,.17,.38,.38,.38h4.09c.31,1.31,.82,2.54,1.51,3.65l-2.89,2.89c-.15,.15-.15,.39,0,.54l3.49,3.49c.15,.15,.39,.15,.54,0l2.89-2.89c1.11,.69,2.34,1.2,3.65,1.51v4.09c0,.21,.17,.38,.38,.38h4.94c.21,0,.38-.17,.38-.38v-4.09c1.31-.31,2.54-.82,3.65-1.51l2.89,2.89c.15,.15,.39,.15,.54,0l3.49-3.49c.15-.15,.15-.39,0-.54l-2.89-2.89c.69-1.11,1.2-2.34,1.51-3.65h4.09c.21,0,.38-.17,.38-.38v-4.94c0-.21-.17-.38-.38-.38Zm-16.14,9.53c-3.69,0-6.68-2.99-6.68-6.68s2.99-6.68,6.68-6.68,6.68,2.99,6.68,6.68-2.99,6.68-6.68,6.68Z"/>
            <path class="hero-cls-11" d="M89.02,236.73l-2.76-.71c.02-.94-.12-1.86-.39-2.73l2.45-1.45c.13-.07,.17-.24,.09-.36l-1.75-2.96c-.07-.13-.24-.17-.36-.09l-2.45,1.45c-.63-.66-1.37-1.22-2.2-1.65l.71-2.76c.04-.14-.05-.29-.19-.32l-3.33-.86c-.14-.04-.29,.05-.32,.19l-.71,2.76c-.94-.02-1.86,.12-2.73,.39l-1.45-2.45c-.07-.13-.24-.17-.36-.09l-2.96,1.75c-.13,.07-.17,.24-.09,.36l1.45,2.45c-.66,.63-1.22,1.37-1.65,2.2l-2.76-.71c-.14-.04-.29,.05-.32,.19l-.86,3.33c-.04,.14,.05,.29,.19,.32l2.76,.71c-.02,.94,.12,1.86,.39,2.73l-2.45,1.45c-.13,.07-.17,.24-.09,.36l1.75,2.96c.07,.13,.24,.17,.36,.09l2.45-1.45c.63,.66,1.37,1.22,2.2,1.65l-.71,2.76c-.04,.14,.05,.29,.19,.32l3.33,.86c.14,.04,.29-.05,.32-.19l.71-2.76c.94,.02,1.86-.12,2.73-.39l1.45,2.45c.07,.13,.24,.17,.36,.09l2.96-1.75c.13-.07,.17-.24,.09-.36l-1.45-2.45c.66-.63,1.22-1.37,1.65-2.2l2.76,.71c.14,.04,.29-.05,.32-.19l.86-3.33c.04-.14-.05-.29-.19-.32Zm-12.55,3.63c-2.49-.64-3.99-3.18-3.35-5.67,.64-2.49,3.18-3.99,5.67-3.35,2.49,.64,3.99,3.18,3.35,5.67-.64,2.49-3.18,3.99-5.67,3.35Z"/>
          </g>
        </g>
        <g>
          <path class="hero-cls-41" d="M37.3,178.12s11.38,17.75,32.76,6.81c21.39-10.93,13.67-30.54,13.67-30.54l-46.44,23.72Z"/>
          <ellipse class="hero-cls-20" cx="60.52" cy="166.27" rx="26.07" ry="8.75" transform="translate(-69.02 45.75) rotate(-27.06)"/>
        </g>
      </g>
      <path class="hero-cls-40" d="M139.4,97.96c-.49,0-.97,.02-1.44,.06,.12-1.01,.19-2.04,.19-3.08,0-14.18-11.5-25.68-25.68-25.68s-25.55,11.37-25.67,25.45c-2.76-1.87-6.09-2.97-9.67-2.97-8.26,0-15.17,5.82-16.84,13.58-1.49-.42-3.07-.65-4.7-.65-9.52,0-17.24,7.72-17.24,17.24,0,8.65,6.37,15.81,14.67,17.05v.19h86.38c11.37,0,20.58-9.22,20.58-20.58s-9.22-20.58-20.58-20.58Z"/>
    </g>
  </g>
</svg>