<svg width="42" height="41" viewBox="0 0 42 41" fill="none" xmlns="http://www.w3.org/2000/svg">
<g clip-path="url(#clip0_556_38987)">
<path d="M18.9512 22.0547H24.049V20.3933H23.4892C23.4892 21.0288 23.0131 21.4972 22.2859 21.4972H21.501V19.017H22.3472V18.4668H18.9512V19.017H19.8067L19.8086 21.4972H18.9512V22.0547Z" fill="black"/>
<path d="M26.5026 22.0576L28.4852 22.0594L30.1684 19.0199H31.0127V18.4697H28.474V19.0199H29.2087L27.9812 21.2333L26.7388 19.0199H27.6297V18.4697H23.9472L23.9453 19.0199H24.7897L26.5026 22.0576Z" fill="black"/>
<path d="M8.80154 18.4697H5.11905L5.11719 19.0199H5.96156L7.67447 22.0576L9.65707 22.0594L11.3402 19.0199H12.1846V18.4697H9.64591V19.0199H10.3787L9.15305 21.2333L7.91067 19.0199H8.80154V18.4697Z" fill="black"/>
<path d="M12.6777 20.2664C12.6777 21.3232 13.55 22.1638 15.2983 22.1638C17.0465 22.1638 17.9095 21.3232 17.9095 20.2664C17.9095 19.2242 16.9944 18.3926 15.2871 18.3926C13.5835 18.3926 12.6777 19.2242 12.6777 20.2664ZM16.1984 20.2755C16.1873 20.9273 15.9101 21.6064 15.2704 21.5955C14.6473 21.5846 14.3739 20.9128 14.3851 20.2446C14.3981 19.5528 14.7366 18.95 15.3206 18.9591C15.9046 18.9682 16.2114 19.5837 16.1984 20.2755Z" fill="black"/>
<path d="M31.5 20.2664C31.5 21.3232 32.3723 22.1638 34.1205 22.1638C35.8688 22.1638 36.7317 21.3232 36.7317 20.2664C36.7317 19.2242 35.8167 18.3926 34.1112 18.3926C32.4057 18.3926 31.5 19.2242 31.5 20.2664ZM34.1428 18.9591C34.725 18.97 35.0337 19.5837 35.0207 20.2755C35.0077 20.9273 34.7324 21.6064 34.0926 21.5955C33.4696 21.5846 33.1962 20.9128 33.2073 20.2446C33.2204 19.551 33.5588 18.9482 34.1428 18.9591Z" fill="black"/>
<path d="M38.2811 8.85347L36.1478 10.9361C37.9761 13.6906 39.0399 16.9752 39.0399 20.5032C39.0399 30.23 30.9626 38.1157 20.9994 38.1157C11.0362 38.1157 2.95892 30.23 2.95892 20.5032C2.95892 10.7763 11.0362 2.89063 20.9994 2.89063C24.6205 2.89063 27.9924 3.93286 30.8194 5.72679L32.9526 3.64416C29.5603 1.34727 25.4407 0 20.9994 0C9.40142 0 -0.00195312 9.17848 -0.00195312 20.5032C-0.00195312 31.8278 9.39956 41.0063 20.9994 41.0063C32.5993 41.0063 42.0008 31.8278 42.0008 20.5032C41.9989 16.1745 40.6245 12.1617 38.2811 8.85347Z" fill="black"/>
<path d="M31.5645 0.807617V1.3832C32.8384 2.05683 34.0362 2.85212 35.1465 3.74546L32.154 6.66696C33.283 7.53124 34.3021 8.52626 35.1893 9.62659L38.1781 6.70872C39.095 7.79452 39.9096 8.96566 40.5996 10.1913H41.1743V0.807617H31.5645Z" fill="black"/>
</g>
<defs>
<clipPath id="clip0_556_38987">
<rect width="42" height="41" fill="white"/>
</clipPath>
</defs>
</svg>